<?xml version="1.0" encoding="UTF-8"?>
<svg version="1.1" xmlns="http://www.w3.org/2000/svg" width="512" height="512">
<path d="M0 0 C1.45108658 0.00273422 1.45108658 0.00273422 2.93148804 0.00552368 C17.26440977 0.05095174 31.21023917 0.55983928 45.3125 3.3125 C46.65803955 3.55395752 46.65803955 3.55395752 48.03076172 3.80029297 C95.57547049 12.40346381 138.5800725 34.88424602 174.1015625 67.32421875 C175.86330083 68.9085382 177.64338787 70.40640998 179.5 71.875 C182.42583127 74.41072043 184.84633456 77.09439933 187.34765625 80.0390625 C189.49985873 82.52928485 191.74775174 84.91250425 194 87.3125 C224.16343523 120.53334848 243.60815878 162.99083273 252.625 206.6875 C252.77243652 207.39817627 252.91987305 208.10885254 253.07177734 208.84106445 C256.05713787 224.48358366 256.6873098 240.11919606 256.625 256 C256.62226578 257.45108658 256.62226578 257.45108658 256.61947632 258.93148804 C256.57404826 273.26440977 256.06516072 287.21023917 253.3125 301.3125 C253.15152832 302.20952637 252.99055664 303.10655273 252.82470703 304.03076172 C244.22153619 351.57547049 221.74075398 394.5800725 189.30078125 430.1015625 C187.7164618 431.86330083 186.21859002 433.64338787 184.75 435.5 C182.21427957 438.42583127 179.53060067 440.84633456 176.5859375 443.34765625 C174.09571515 445.49985873 171.71249575 447.74775174 169.3125 450 C136.09165152 480.16343523 93.63416727 499.60815878 49.9375 508.625 C49.22682373 508.77243652 48.51614746 508.91987305 47.78393555 509.07177734 C32.14141634 512.05713787 16.50580394 512.6873098 0.625 512.625 C-0.34239105 512.62317719 -1.3097821 512.62135437 -2.30648804 512.61947632 C-16.63940977 512.57404826 -30.58523917 512.06516072 -44.6875 509.3125 C-45.58452637 509.15152832 -46.48155273 508.99055664 -47.40576172 508.82470703 C-94.95047049 500.22153619 -137.9550725 477.74075398 -173.4765625 445.30078125 C-175.23830083 443.7164618 -177.01838787 442.21859002 -178.875 440.75 C-181.80083127 438.21427957 -184.22133456 435.53060067 -186.72265625 432.5859375 C-188.87485873 430.09571515 -191.12275174 427.71249575 -193.375 425.3125 C-223.53843523 392.09165152 -242.98315878 349.63416727 -252 305.9375 C-252.14743652 305.22682373 -252.29487305 304.51614746 -252.44677734 303.78393555 C-255.43213787 288.14141634 -256.0623098 272.50580394 -256 256.625 C-255.99817719 255.65760895 -255.99635437 254.6902179 -255.99447632 253.69351196 C-255.94904826 239.36059023 -255.44016072 225.41476083 -252.6875 211.3125 C-252.44604248 209.96696045 -252.44604248 209.96696045 -252.19970703 208.59423828 C-243.59653619 161.04952951 -221.11575398 118.0449275 -188.67578125 82.5234375 C-187.0914618 80.76169917 -185.59359002 78.98161213 -184.125 77.125 C-181.58927957 74.19916873 -178.90560067 71.77866544 -175.9609375 69.27734375 C-173.47071515 67.12514127 -171.08749575 64.87724826 -168.6875 62.625 C-135.46665152 32.46156477 -93.00916727 13.01684122 -49.3125 4 C-48.60182373 3.85256348 -47.89114746 3.70512695 -47.15893555 3.55322266 C-31.51641634 0.56786213 -15.88080394 -0.0623098 0 0 Z M15.3125 31.3125 C15.3125 65.3025 15.3125 99.2925 15.3125 134.3125 C27.46345621 133.70495219 39.24493968 133.07033017 51.25 131.5 C52.26128464 131.37035858 52.26128464 131.37035858 53.29299927 131.23809814 C62.14795009 130.09984803 70.9697888 128.81380907 79.75 127.1875 C81.05408813 126.95003052 81.05408813 126.95003052 82.38452148 126.70776367 C84.3761746 126.31511584 86.34815643 125.82456327 88.3125 125.3125 C89.84583646 122.24582708 88.52050734 119.59274227 87.64453125 116.4375 C87.45378525 115.73323883 87.26303925 115.02897766 87.06651306 114.30337524 C86.4292959 111.97020941 85.77860175 109.64112616 85.125 107.3125 C84.79211975 106.1166629 84.79211975 106.1166629 84.45251465 104.89666748 C81.06023651 92.76517128 77.2717975 80.80962809 73.0625 68.9375 C72.81891754 68.24769043 72.57533508 67.55788086 72.32437134 66.84716797 C70.93933307 62.94482894 69.50502693 59.06547668 68.02075195 55.1998291 C67.29118894 53.25571091 66.61345251 51.29761678 65.93554688 49.33496094 C63.74673455 42.84219683 63.74673455 42.84219683 59.32592773 37.85058594 C56.96279524 37.00832303 54.80074458 36.62188362 52.3125 36.3125 C50.50619761 35.93639502 48.70022032 35.55872613 46.89453125 35.1796875 C44.97261956 34.84168258 43.04940003 34.51103733 41.125 34.1875 C40.18591797 34.01863281 39.24683594 33.84976563 38.27929688 33.67578125 C30.55712566 32.34779785 23.2271729 31.87783378 15.3125 31.3125 Z M-32.6875 33.125 C-34.42193359 33.3734668 -34.42193359 33.3734668 -36.19140625 33.62695312 C-38.52546774 33.97249854 -40.85638991 34.33994483 -43.18359375 34.72900391 C-45.54344119 35.12198296 -47.91168426 35.46718452 -50.28515625 35.76708984 C-56.51455998 36.65999328 -56.51455998 36.65999328 -61.42480469 40.24633789 C-62.79906238 42.8848158 -63.75347155 45.48813167 -64.6875 48.3125 C-65.54603626 50.47429162 -66.40546162 52.63573029 -67.265625 54.796875 C-68.16520263 57.21543893 -69.05540882 59.6375038 -69.9375 62.0625 C-70.17228058 62.70479553 -70.40706116 63.34709106 -70.6489563 64.0088501 C-77.82973475 83.71446727 -84.01560937 103.86072705 -88.6875 124.3125 C-84.5329356 125.79280807 -80.51945374 126.80223912 -76.171875 127.53125 C-74.92970215 127.74040039 -73.6875293 127.94955078 -72.40771484 128.16503906 C-71.08441868 128.38152537 -69.7610112 128.59733226 -68.4375 128.8125 C-67.76454895 128.92299683 -67.0915979 129.03349365 -66.39825439 129.14733887 C-49.0975257 131.980622 -32.30540235 133.43160488 -14.6875 134.3125 C-14.6875 100.3225 -14.6875 66.3325 -14.6875 31.3125 C-20.81945704 31.3125 -26.63272328 32.22105668 -32.6875 33.125 Z M-147.6875 86.3125 C-148.46996094 86.98410156 -149.25242187 87.65570313 -150.05859375 88.34765625 C-154.11611393 91.83758381 -158.04038439 95.39185072 -161.6875 99.3125 C-161.6875 99.9725 -161.6875 100.6325 -161.6875 101.3125 C-144.31048433 108.15312034 -144.31048433 108.15312034 -126.75 114.5 C-125.06583984 115.07814453 -125.06583984 115.07814453 -123.34765625 115.66796875 C-120.60805179 116.58086667 -120.60805179 116.58086667 -117.6875 115.3125 C-116.78297366 112.8806713 -116.08670814 110.58266199 -115.453125 108.078125 C-115.15458115 106.96554573 -115.15458115 106.96554573 -114.8500061 105.83049011 C-114.42335741 104.23734412 -114.00217278 102.64272688 -113.58587646 101.04684448 C-112.50781851 96.9161157 -111.39128286 92.79589168 -110.2734375 88.67578125 C-110.0539444 87.86412003 -109.83445129 87.0524588 -109.60830688 86.21620178 C-107.58061537 78.78364341 -105.23254093 71.48269523 -102.66894531 64.21777344 C-101.13486315 59.87158534 -101.13486315 59.87158534 -100.6875 55.3125 C-115.51644381 55.3125 -137.05547365 76.93818241 -147.6875 86.3125 Z M101.3125 55.3125 C102.73657307 62.31720462 104.74617299 68.97183192 107 75.75 C110.41834168 86.14866602 113.36386052 96.61499966 115.96557617 107.24780273 C116.23088135 108.29009033 116.49618652 109.33237793 116.76953125 110.40625 C116.99616455 111.33115234 117.22279785 112.25605469 117.45629883 113.20898438 C117.88011841 114.25022461 117.88011841 114.25022461 118.3125 115.3125 C122.00750042 116.54416681 123.14245434 115.92701936 126.765625 114.65234375 C128.39781982 114.08374634 128.39781982 114.08374634 130.06298828 113.50366211 C131.21782715 113.08995361 132.37266602 112.67624512 133.5625 112.25 C134.73151855 111.8382251 135.90053711 111.4264502 137.10498047 111.00219727 C145.59851869 107.98743204 154.00502231 104.80822081 162.3125 101.3125 C156.42334775 87.21125211 136.7272659 76.12648162 124.625 68 C123.7705127 67.42531982 122.91602539 66.85063965 122.03564453 66.25854492 C112.30215377 58.94724981 112.30215377 58.94724981 101.3125 55.3125 Z M-183.6875 125.3125 C-207.5684942 157.19662308 -224.6875 201.14008518 -224.6875 241.3125 C-194.9875 241.3125 -165.2875 241.3125 -134.6875 241.3125 C-133.6975 226.7925 -132.7075 212.2725 -131.6875 197.3125 C-130.26047118 185.89626942 -128.81116216 174.53666966 -127.19042969 163.15625 C-126.50102072 157.88729136 -126.04116657 152.61366817 -125.6875 147.3125 C-132.25888513 144.59627753 -138.89870233 142.15210729 -145.61181641 139.81005859 C-156.82734437 135.89695277 -167.77925941 131.74510048 -178.5390625 126.7109375 C-181.41796203 125.17719065 -181.41796203 125.17719065 -183.6875 125.3125 Z M178.2109375 127.11328125 C164.90322075 133.1717879 151.47211706 138.19498743 137.61474609 142.81958008 C136.93772644 143.04607239 136.26070679 143.2725647 135.56317139 143.50592041 C133.70968231 144.12409613 131.85416738 144.73618805 129.99853516 145.34790039 C127.42701382 146.05581792 127.42701382 146.05581792 126.3125 147.3125 C126.48395101 157.00282174 128.32713831 166.7487451 129.6875 176.3125 C132.38496339 197.89220715 133.83314062 219.61522908 135.3125 241.3125 C165.0125 241.3125 194.7125 241.3125 225.3125 241.3125 C224.6833732 231.87559804 224.03783207 223.25763853 222.125 214.125 C221.79399292 212.52072144 221.79399292 212.52072144 221.45629883 210.8840332 C215.43983769 182.61024081 204.6840626 155.68238666 188.75 131.5 C188.12375732 130.54806763 188.12375732 130.54806763 187.48486328 129.5769043 C186.4853351 128.11412447 185.4064082 126.70610908 184.3125 125.3125 C181.8335847 125.3125 180.46157439 126.06538742 178.2109375 127.11328125 Z M-94.6875 155.3125 C-96.17714909 160.18574686 -97.18465966 164.89747198 -97.90625 169.95703125 C-98.00915848 170.67595551 -98.11206696 171.39487976 -98.21809387 172.1355896 C-98.54815607 174.46448597 -98.86899476 176.79449644 -99.1875 179.125 C-99.29766449 179.92362457 -99.40782898 180.72224915 -99.52133179 181.54507446 C-100.93319109 191.84291094 -102.19079097 202.13438003 -103 212.5 C-103.07605469 213.45688721 -103.15210938 214.41377441 -103.23046875 215.3996582 C-103.82928258 224.07871609 -103.6875 232.55394856 -103.6875 241.3125 C-74.3175 241.3125 -44.9475 241.3125 -14.6875 241.3125 C-14.6875 216.2325 -14.6875 191.1525 -14.6875 165.3125 C-17.95679249 164.49517688 -20.60662535 164.1098967 -23.9296875 163.91796875 C-25.5070166 163.81850952 -25.5070166 163.81850952 -27.11621094 163.71704102 C-28.25348633 163.64541748 -29.39076172 163.57379395 -30.5625 163.5 C-49.82193147 162.17732328 -69.21409039 160.07868826 -88.0703125 155.828125 C-90.89701043 155.18363387 -90.89701043 155.18363387 -94.6875 155.3125 Z M85.74609375 156.30078125 C84.63403564 156.5112207 83.52197754 156.72166016 82.3762207 156.93847656 C81.17956787 157.1650293 79.98291504 157.39158203 78.75 157.625 C60.12742651 161.04722613 41.39495255 163.30603052 22.47265625 164.1015625 C19.13894549 164.23024107 19.13894549 164.23024107 15.3125 165.3125 C15.3125 190.3925 15.3125 215.4725 15.3125 241.3125 C44.6825 241.3125 74.0525 241.3125 104.3125 241.3125 C104.33674422 226.68352833 104.33674422 226.68352833 103.44897461 212.14770508 C103.38628387 211.47059479 103.32359314 210.7934845 103.25900269 210.09585571 C103.1941568 209.40422333 103.12931091 208.71259094 103.0625 208 C102.99725128 207.28024994 102.93200256 206.56049988 102.86477661 205.81893921 C100.90289059 180.21708838 100.90289059 180.21708838 95.3125 155.3125 C91.86333521 155.3125 89.10351347 155.64872382 85.74609375 156.30078125 Z M-224.6875 271.3125 C-224.0583732 280.74940196 -223.41283207 289.36736147 -221.5 298.5 C-221.27932861 299.56951904 -221.05865723 300.63903809 -220.83129883 301.7409668 C-214.25359511 332.65226582 -201.96891229 361.49644924 -183.6875 387.3125 C-179.72299603 386.03195279 -175.87715881 384.61114968 -172.0390625 382.9921875 C-157.7241609 377.01997201 -143.37690571 371.62975567 -128.57568359 366.98583984 C-126.70174199 366.46958056 -126.70174199 366.46958056 -125.6875 365.3125 C-125.85895101 355.62217826 -127.70213831 345.8762549 -129.0625 336.3125 C-131.75996339 314.73279285 -133.20814062 293.00977092 -134.6875 271.3125 C-164.3875 271.3125 -194.0875 271.3125 -224.6875 271.3125 Z M-103.6875 271.3125 C-103.71174422 285.94147167 -103.71174422 285.94147167 -102.82397461 300.47729492 C-102.76128387 301.15440521 -102.69859314 301.8315155 -102.63400269 302.52914429 C-102.5691568 303.22077667 -102.50431091 303.91240906 -102.4375 304.625 C-102.37225128 305.34475006 -102.30700256 306.06450012 -102.23977661 306.80606079 C-100.27789059 332.40791162 -100.27789059 332.40791162 -94.6875 357.3125 C-86.84207128 356.55600687 -79.1375121 355.22466143 -71.375 353.875 C-55.65333249 351.18843594 -40.00092868 349.37867691 -24.06323242 348.65332031 C-20.74866781 348.49389908 -17.93297984 348.12386996 -14.6875 347.3125 C-14.6875 322.2325 -14.6875 297.1525 -14.6875 271.3125 C-44.0575 271.3125 -73.4275 271.3125 -103.6875 271.3125 Z M15.3125 271.3125 C15.3125 296.3925 15.3125 321.4725 15.3125 347.3125 C18.58179249 348.12982312 21.23162535 348.5151033 24.5546875 348.70703125 C25.60624023 348.7733374 26.65779297 348.83964355 27.74121094 348.90795898 C28.87848633 348.97958252 30.01576172 349.05120605 31.1875 349.125 C50.3991321 350.44439401 69.83439304 352.41409143 88.59765625 356.89453125 C91.4987651 357.34117678 93.47627657 356.9528417 96.3125 356.3125 C98.54157352 342.76436486 100.54701648 329.21775978 102 315.5625 C102.11899658 314.44713867 102.23799316 313.33177734 102.3605957 312.18261719 C103.76954481 298.48523456 104.3125 285.14221081 104.3125 271.3125 C74.9425 271.3125 45.5725 271.3125 15.3125 271.3125 Z M135.3125 271.3125 C134.3225 285.8325 133.3325 300.3525 132.3125 315.3125 C130.88547118 326.72873058 129.43616216 338.08833034 127.81542969 349.46875 C127.12602072 354.73770864 126.66616657 360.01133183 126.3125 365.3125 C132.88388513 368.02872247 139.52370233 370.47289271 146.23681641 372.81494141 C157.45234437 376.72804723 168.40425941 380.87989952 179.1640625 385.9140625 C182.04296203 387.44780935 182.04296203 387.44780935 184.3125 387.3125 C208.1934942 355.42837692 225.3125 311.48491482 225.3125 271.3125 C195.6125 271.3125 165.9125 271.3125 135.3125 271.3125 Z M15.3125 378.3125 C15.3125 412.3025 15.3125 446.2925 15.3125 481.3125 C24.13692273 480.68218409 32.48727243 479.99074957 41.125 478.4375 C42.08341797 478.27636719 43.04183594 478.11523438 44.02929688 477.94921875 C46.80538435 477.46099069 49.55575689 476.8992461 52.3125 476.3125 C53.14716797 476.17118652 53.98183594 476.02987305 54.84179688 475.88427734 C58.42932592 475.06441883 60.59559744 474.32026565 62.77172852 471.26123047 C64.11690527 468.450325 65.17105604 465.63342988 66.1875 462.6875 C66.59331299 461.59228027 66.99912598 460.49706055 67.41723633 459.36865234 C68.52341228 456.34062471 69.59336558 453.30298983 70.64202881 450.25463867 C71.32396102 448.27930113 72.01729915 446.30828369 72.71337891 444.33789062 C79.2132991 425.88751308 84.75586318 407.34483753 89.3125 388.3125 C85.1579356 386.83219193 81.14445374 385.82276088 76.796875 385.09375 C75.55470215 384.88459961 74.3125293 384.67544922 73.03271484 384.45996094 C71.70941868 384.24347463 70.3860112 384.02766774 69.0625 383.8125 C68.05307343 383.64675476 68.05307343 383.64675476 67.02325439 383.47766113 C49.7225257 380.644378 32.93040235 379.19339512 15.3125 378.3125 Z M-87.6875 387.3125 C-89.22083646 390.37917292 -87.89550734 393.03225773 -87.01953125 396.1875 C-86.82878525 396.89176117 -86.63803925 397.59602234 -86.44151306 398.32162476 C-85.8042959 400.65479059 -85.15360175 402.98387384 -84.5 405.3125 C-84.27807983 406.10972473 -84.05615967 406.90694946 -83.82751465 407.72833252 C-80.43523651 419.85982872 -76.6467975 431.81537191 -72.4375 443.6875 C-72.19391754 444.37730957 -71.95033508 445.06711914 -71.69937134 445.77783203 C-70.31433307 449.68017106 -68.88002693 453.55952332 -67.39575195 457.4251709 C-66.66618894 459.36928909 -65.98845251 461.32738322 -65.31054688 463.29003906 C-63.12173455 469.78280317 -63.12173455 469.78280317 -58.70092773 474.77441406 C-56.33779524 475.61667697 -54.17574458 476.00311638 -51.6875 476.3125 C-49.88119761 476.68860498 -48.07522032 477.06627387 -46.26953125 477.4453125 C-44.34761956 477.78331742 -42.42440003 478.11396267 -40.5 478.4375 C-39.56091797 478.60636719 -38.62183594 478.77523437 -37.65429688 478.94921875 C-29.93212566 480.27720215 -22.6021729 480.74716622 -14.6875 481.3125 C-14.6875 447.3225 -14.6875 413.3325 -14.6875 378.3125 C-38.18553588 378.3125 -65.10801752 380.50874866 -87.6875 387.3125 Z M119.3125 396.3125 C116.78077345 403.6576326 114.65218129 411.08113367 112.5625 418.5625 C109.77210994 428.4745246 106.78827003 438.27990185 103.39550781 448.00292969 C103.12061523 448.79731445 102.84572266 449.59169922 102.5625 450.41015625 C102.32015625 451.09601807 102.0778125 451.78187988 101.828125 452.48852539 C101.1764839 454.47773478 101.1764839 454.47773478 101.3125 457.3125 C118.99855681 450.55493899 134.24293723 438.71771285 148.3125 426.3125 C149.09496094 425.64089844 149.87742187 424.96929687 150.68359375 424.27734375 C154.74111393 420.78741619 158.66538439 417.23314928 162.3125 413.3125 C162.3125 412.6525 162.3125 411.9925 162.3125 411.3125 C141.40146082 401.38478066 141.40146082 401.38478066 119.3125 396.3125 Z M-126.140625 397.97265625 C-127.22875488 398.35172119 -128.31688477 398.73078613 -129.43798828 399.12133789 C-131.17024658 399.74190063 -131.17024658 399.74190063 -132.9375 400.375 C-134.10651855 400.7867749 -135.27553711 401.1985498 -136.47998047 401.62280273 C-144.97351869 404.63756796 -153.38002231 407.81677919 -161.6875 411.3125 C-155.79834775 425.41374789 -136.1022659 436.49851838 -124 444.625 C-123.1455127 445.19968018 -122.29102539 445.77436035 -121.41064453 446.36645508 C-111.67715377 453.67775019 -111.67715377 453.67775019 -100.6875 457.3125 C-102.11157307 450.30779538 -104.12117299 443.65316808 -106.375 436.875 C-109.79334168 426.47633398 -112.73886052 416.01000034 -115.34057617 405.37719727 C-115.60588135 404.33490967 -115.87118652 403.29262207 -116.14453125 402.21875 C-116.37116455 401.29384766 -116.59779785 400.36894531 -116.83129883 399.41601562 C-117.11384521 398.72185547 -117.3963916 398.02769531 -117.6875 397.3125 C-121.38250042 396.08083319 -122.51745434 396.69798064 -126.140625 397.97265625 Z " fill="#000000" transform="translate(255.6875,-0.3125)"/>
</svg>
