<?xml version="1.0" encoding="UTF-8"?>
<svg version="1.1" xmlns="http://www.w3.org/2000/svg" width="512" height="512">
<path d="M0 0 C7.41997422 4.44197445 12.23409424 10.27489352 14.86514819 18.44496238 C16.00210548 23.13271537 15.92102642 27.78336265 15.89872742 32.58485413 C15.90537424 33.71552085 15.91202107 34.84618757 15.91886932 36.01111692 C15.9374584 39.78362695 15.93489669 43.55581866 15.93237305 47.32836914 C15.939738 50.03903497 15.95158984 52.74967688 15.96325684 55.46032715 C15.98600005 61.28787387 15.99792053 67.11536099 16.00238609 72.9429493 C16.00885825 81.36853536 16.03181432 89.79401388 16.05872939 98.2195565 C16.10195774 111.89106614 16.13194704 125.56257123 16.15356445 139.23413086 C16.174586 152.51084625 16.20187135 165.78752453 16.23754883 179.06420898 C16.23974765 179.88326826 16.24194648 180.70232753 16.24421193 181.54620678 C16.25528188 185.65539095 16.26647463 189.76457477 16.27772844 193.87375844 C16.37085756 227.93664126 16.44248145 261.99953851 16.5 296.0625 C17.69150917 294.85766716 17.69150917 294.85766716 18.90708923 293.62849426 C26.41363541 286.04067531 33.93086265 278.46358212 41.45853329 270.89671803 C45.32775617 267.00666768 49.1931892 263.11300488 53.05004883 259.21069336 C56.77594327 255.44116944 60.51167431 251.6816522 64.25427437 247.92871666 C65.67664958 246.49898081 67.09551412 245.06574306 68.5106945 243.62888527 C70.50162176 241.60869792 72.50494966 239.60160393 74.51147461 237.59692383 C75.08691513 237.0071022 75.66235565 236.41728058 76.25523376 235.80958557 C83.1293379 229.00306392 90.47022746 225.00426025 100.25 224.8125 C109.74209994 224.99504038 115.47224717 228.10519334 122.328125 234.65234375 C127.87696063 240.80995451 129.90051293 247.57897004 129.69921875 255.83203125 C129.09034608 262.64901744 127.27051416 267.60395437 122.58106995 272.66177368 C121.77233995 273.53424366 120.96360996 274.40671364 120.130373 275.3056221 C115.52685329 280.13054303 110.84965893 284.87798192 106.14038086 289.59912109 C105.02871731 290.71706775 103.91723689 291.83519652 102.80592346 292.95349121 C99.19573612 296.58447212 95.58043899 300.21034291 91.96484375 303.8359375 C90.7128194 305.0920163 89.46082643 306.34812639 88.20886421 307.60426712 C82.33280101 313.4993141 76.45437625 319.39199346 70.5730018 325.2817415 C63.80571396 332.05882785 57.04681605 338.84414186 50.2948007 345.6364435 C45.05571868 350.90570214 39.80896772 356.16724524 34.55643183 361.42309248 C31.42704276 364.55482669 28.30101556 367.68974798 25.1830883 370.83289719 C22.25413081 373.78517282 19.31574937 376.7277349 16.36998558 379.66323853 C15.29425117 380.73847868 14.22190049 381.81711706 13.1533165 382.89946365 C5.14375976 391.00633811 -1.51428733 396.53011916 -13.25 397.3125 C-23.25089375 397.16154311 -30.81242804 391.99081811 -37.71231079 385.11761475 C-38.20055781 384.63389884 -38.68880482 384.15018294 -39.19184721 383.65180898 C-40.81315068 382.04308223 -42.42730639 380.42737779 -44.04150391 378.81152344 C-45.20790096 377.65111574 -46.37470559 376.49111759 -47.54188538 375.33149719 C-50.70153516 372.18947081 -53.85471125 369.0410251 -57.00619936 365.89081478 C-58.97740473 363.92103337 -60.95002837 361.95268395 -62.92316818 359.98484039 C-69.81224214 353.114253 -76.69614625 346.23853445 -83.57519531 339.35791016 C-89.97923434 332.95266938 -96.3943464 326.55867004 -102.81475317 320.16983962 C-108.33457718 314.67619408 -113.84663491 309.17483723 -119.35274637 303.66744828 C-122.63793269 300.38175289 -125.92612526 297.09921357 -129.22215652 293.82439423 C-132.32221408 290.74374589 -135.41246032 287.65357863 -138.49555779 284.5559597 C-139.62562891 283.4238029 -140.75909407 282.2950217 -141.89625359 281.16998482 C-150.13497347 273.01340228 -155.93964979 266.32766557 -156.75 254.375 C-156.52319108 245.07583437 -153.3406475 238.86653901 -146.9140625 232.19921875 C-140.58286898 226.59539536 -133.58455461 224.65049243 -125.27734375 224.796875 C-109.13836993 226.34040555 -98.58888508 240.82941783 -87.8359375 251.62890625 C-86.5500759 252.91663751 -85.26398995 254.20414477 -83.97769165 255.49143982 C-80.6251489 258.84776463 -77.27562251 262.20708348 -73.92675781 265.56707764 C-70.49599 269.00815327 -67.0623193 272.44632969 -63.62890625 275.88476562 C-56.91645851 282.60787447 -50.2072001 289.33415621 -43.5 296.0625 C-43.49910437 295.19535832 -43.49910437 295.19535832 -43.49819064 294.31069863 C-43.46227959 260.03141376 -43.40561439 225.75223053 -43.32207905 191.47302897 C-43.31206185 187.35506654 -43.30221768 183.23710372 -43.29248047 179.11914062 C-43.28956841 177.88944669 -43.28956841 177.88944669 -43.28659752 176.63491045 C-43.25559498 163.36912459 -43.23860175 150.10335602 -43.22680578 136.83754076 C-43.21438517 123.22079378 -43.18686323 109.6041374 -43.14538693 95.98744762 C-43.12027755 87.58840048 -43.10688085 79.18950363 -43.10857043 70.79041843 C-43.10860023 65.02714854 -43.09393243 59.26403149 -43.06783572 53.50082119 C-43.05321938 50.17797469 -43.0471429 46.85570433 -43.05419731 43.53279305 C-43.06083897 39.92323121 -43.04291038 36.31457894 -43.01898193 32.70510864 C-43.02674235 31.66422628 -43.03450277 30.62334391 -43.04249835 29.55091965 C-42.9300999 19.94993084 -40.27068594 11.83120667 -33.51953125 4.82421875 C-24.37213826 -3.15542194 -11.18737558 -4.95490246 0 0 Z " fill="#000000" transform="translate(269.5,1.9375)"/>
<path d="M0 0 C7.32424408 4.68362477 12.41102185 9.89105369 15.05859375 18.31640625 C15.94031959 24.53321099 15.76357747 30.86430935 15.74609375 37.12890625 C15.82360096 58.75760661 17.24399517 77.93716048 32.80859375 94.50390625 C46.32371719 107.42806422 63.3500621 110.64470256 81.43041992 110.57037354 C82.61643641 110.57349352 83.80245291 110.5766135 85.02440929 110.57982802 C88.28063807 110.58637473 91.53671494 110.584087 94.79293966 110.57785559 C98.31856137 110.57329957 101.84416373 110.58033036 105.36978149 110.58581543 C112.26235051 110.59467768 119.15487581 110.5928016 126.04744649 110.58699015 C131.65251475 110.58246114 137.25757081 110.5818661 142.86264038 110.58403778 C143.66240459 110.58434425 144.46216879 110.58465071 145.28616828 110.58496647 C146.9112111 110.58560596 148.53625391 110.58625439 150.16129673 110.58691165 C165.37556334 110.59260566 180.5898058 110.58607165 195.80406845 110.57531092 C208.83976866 110.56637625 221.87543324 110.56792855 234.91113281 110.57714844 C250.07343411 110.5878675 265.23571428 110.59205643 280.39801884 110.58592391 C282.01686159 110.58528686 283.63570436 110.58465811 285.25454712 110.58403778 C286.0509107 110.58372923 286.84727428 110.58342068 287.66777009 110.58310278 C293.26178478 110.58138074 298.85578598 110.58428031 304.44979858 110.58899689 C311.2732078 110.59462393 318.09657105 110.59305109 324.91997504 110.5824354 C328.39692828 110.57720314 331.87380504 110.57507989 335.3507576 110.5817337 C339.12950315 110.58722286 342.9080355 110.58031402 346.68676758 110.57037354 C348.31462079 110.5770657 348.31462079 110.5770657 349.97535992 110.58389306 C367.66870658 110.49401127 383.17839671 105.84361878 396.24609375 93.56640625 C408.61373137 80.63325041 412.11168799 64.45154818 412.296875 47.0859375 C412.30578766 46.27734787 412.31470032 45.46875824 412.32388306 44.63566589 C412.35332399 41.28765553 412.37335793 37.94018617 412.36401367 34.59204102 C412.35196392 23.2685559 412.7056262 14.76495424 420.234375 5.6953125 C428.25322996 -1.1214472 434.18906744 -3.33047312 444.8125 -3.0234375 C452.99832248 -2.16643803 458.49682103 1.09226187 464.26953125 6.828125 C469.53865702 14.15658158 470.65265436 20.90349932 470.5546875 29.7890625 C470.55614273 30.87037949 470.55759796 31.95169647 470.55909729 33.06578064 C470.5574446 35.3458832 470.54595448 37.62599765 470.52514648 39.90600586 C470.49637959 43.34473727 470.50451597 46.78190476 470.51757812 50.22070312 C470.50381241 65.72799586 469.55302387 80.25419078 463.93359375 94.87890625 C463.63356445 95.67063232 463.33353516 96.4623584 463.02441406 97.27807617 C452.36037874 124.315917 430.48370481 147.56978854 403.84570312 159.29003906 C401.47251878 160.2780384 399.08621577 161.2149342 396.68359375 162.12890625 C395.96606934 162.40694092 395.24854492 162.68497559 394.50927734 162.97143555 C377.65058014 169.05055962 360.56360545 168.75571683 342.88958979 168.70858026 C339.08037915 168.70172621 335.2712081 168.71230211 331.46200562 168.72052002 C324.02051501 168.73379249 316.57911568 168.73100875 309.13762164 168.7222821 C303.08454823 168.71548024 297.03150022 168.71459959 290.97842407 168.71785355 C290.11374805 168.71831325 289.24907202 168.71877294 288.3581937 168.71924657 C286.60109193 168.72020584 284.84399018 168.72117848 283.08688843 168.72216435 C266.64781154 168.73069924 250.20878501 168.72091405 233.76971638 168.70476325 C219.69378312 168.6913618 205.61792411 168.69369043 191.54199219 168.70751953 C175.15785979 168.72360904 158.77377142 168.72987544 142.38963223 168.72068274 C140.63934263 168.71972719 138.88905303 168.71878408 137.13876343 168.71785355 C136.277804 168.71739072 135.41684457 168.71692789 134.52979547 168.71645104 C128.49076955 168.71387125 122.4517718 168.71821023 116.41275024 168.72529221 C109.0434947 168.73374498 101.6743349 168.73134825 94.30509019 168.71544997 C90.55214949 168.70761772 86.79936786 168.70438835 83.04642868 168.71439743 C65.23946544 168.75794868 48.34606763 168.66587415 31.49609375 162.19140625 C30.70436768 161.89137695 29.9126416 161.59134766 29.09692383 161.28222656 C2.0966118 150.63299303 -21.27389717 128.73826128 -32.91503906 102.08740234 C-33.90164416 99.69823151 -34.83941528 97.29655971 -35.75390625 94.87890625 C-36.03194092 94.15300293 -36.30997559 93.42709961 -36.59643555 92.67919922 C-41.95028425 77.7666526 -42.47313879 63.19519502 -42.44238281 47.51733398 C-42.44140326 43.99316473 -42.48330467 40.47112621 -42.52734375 36.94726562 C-42.53254716 34.67838989 -42.535239 32.4095067 -42.53515625 30.140625 C-42.55155151 29.10185715 -42.56794678 28.06308929 -42.58483887 26.99284363 C-42.50043488 17.99582615 -39.68206941 11.20991695 -33.75390625 4.44140625 C-24.6925338 -3.80151966 -10.91997522 -5.75051906 0 0 Z " fill="#000000" transform="translate(41.94140625,343.68359375)"/>
</svg>
