<?xml version="1.0" encoding="UTF-8"?>
<svg version="1.1" xmlns="http://www.w3.org/2000/svg" width="500" height="500">
<path d="M0 0 C1.23909119 -0.01134979 2.47818237 -0.02269958 3.75482178 -0.03439331 C5.11505192 -0.03175034 6.47528146 -0.02877918 7.83551025 -0.0255127 C9.27828629 -0.03285799 10.72105645 -0.04144556 12.16381836 -0.05117798 C16.07315297 -0.0733591 19.98227657 -0.07632623 23.89166546 -0.07443047 C27.16173482 -0.07431056 30.43175982 -0.08288322 33.7018168 -0.09120798 C41.42219278 -0.11043136 49.14246065 -0.11333043 56.862854 -0.10656738 C64.8098075 -0.09993344 72.75629605 -0.12276706 80.70315528 -0.15988111 C87.53992111 -0.19064443 94.37653792 -0.2019308 101.21337152 -0.1980443 C105.29045892 -0.19598292 109.36718477 -0.20136018 113.44420624 -0.22593689 C117.28251373 -0.2483105 121.12006976 -0.24623937 124.95838165 -0.22600937 C126.36034232 -0.22261747 127.76235462 -0.22760938 129.16424561 -0.24199295 C137.91677866 -0.32553724 144.28290399 0.62475474 151.72711182 5.39440918 C151.72711182 6.05440918 151.72711182 6.71440918 151.72711182 7.39440918 C152.38711182 7.39440918 153.04711182 7.39440918 153.72711182 7.39440918 C153.72711182 8.05440918 153.72711182 8.71440918 153.72711182 9.39440918 C154.38711182 9.39440918 155.04711182 9.39440918 155.72711182 9.39440918 C161.8037227 17.30391085 164.91992611 26.38595172 163.72711182 36.39440918 C162.38657352 42.94000631 160.0954019 49.23319515 155.72711182 54.39440918 C155.06711182 54.39440918 154.40711182 54.39440918 153.72711182 54.39440918 C153.72711182 55.05440918 153.72711182 55.71440918 153.72711182 56.39440918 C152.04742432 57.68347168 152.04742432 57.68347168 149.85211182 59.01940918 C149.13281494 59.4654248 148.41351807 59.91144043 147.67242432 60.37097168 C145.72711182 61.39440918 145.72711182 61.39440918 143.72711182 61.39440918 C143.72933243 62.4060614 143.73155304 63.41771362 143.73384094 64.46002197 C143.89089238 139.29909451 143.69953418 214.13829688 143.43797398 288.97691727 C143.42821567 291.77286018 143.41846678 294.56880313 143.40872192 297.36474609 C143.40630443 298.05661954 143.40388693 298.74849298 143.40139618 299.46133229 C143.36483995 309.95964373 143.33373426 320.45796193 143.30551147 330.95629883 C143.27286047 343.09193715 143.23293666 355.22752224 143.18442208 367.36310911 C143.15937055 373.67279564 143.13744314 379.98245301 143.12375069 386.29217529 C143.11088685 392.15756189 143.08879849 398.02284276 143.05972469 403.88817072 C143.05073005 406.01781781 143.04498157 408.14748175 143.04289925 410.27714682 C143.01588749 433.68685182 141.09911129 454.33640997 127.72711182 474.39440918 C127.06711182 474.39440918 126.40711182 474.39440918 125.72711182 474.39440918 C125.72711182 475.05440918 125.72711182 475.71440918 125.72711182 476.39440918 C125.06711182 476.39440918 124.40711182 476.39440918 123.72711182 476.39440918 C123.47703369 476.97577637 123.22695557 477.55714355 122.96929932 478.15612793 C116.78157436 489.30570781 101.38824027 495.96791646 89.72711182 499.39440918 C83.42967875 500.92150683 76.97831295 500.65605862 70.53765869 500.6895752 C69.01152218 500.70102444 67.48542344 500.72136284 65.95953369 500.75109863 C44.8512425 501.16143574 28.60909533 493.99215634 12.95367432 479.78503418 C11.72711182 478.39440918 11.72711182 478.39440918 11.72711182 476.39440918 C11.06711182 476.39440918 10.40711182 476.39440918 9.72711182 476.39440918 C3.5442892 468.81942783 -0.22217214 460.62096501 -3.27288818 451.39440918 C-3.50749756 450.70347168 -3.74210693 450.01253418 -3.98382568 449.30065918 C-9.76057453 430.88203967 -7.43611662 408.46391672 -7.47821045 389.44836426 C-7.48729034 386.67258866 -7.49778412 383.8968188 -7.50820923 381.12104797 C-7.53263059 374.3958295 -7.55213402 367.6706056 -7.56996197 360.94536678 C-7.59112774 353.04325177 -7.617529 345.1411566 -7.64413344 337.23905834 C-7.6916951 323.06632436 -7.73494056 308.8935806 -7.77557373 294.7208252 C-7.81455835 281.12543823 -7.85599611 267.53006219 -7.90057373 253.93469238 C-7.903298 253.10366722 -7.90602227 252.27264206 -7.9088291 251.41643433 C-7.91980281 248.07072454 -7.93078195 244.72501478 -7.94177124 241.37930505 C-7.98747084 227.44453192 -8.03116923 213.5097524 -8.07456088 199.57497191 C-8.08427186 196.45705321 -8.09405018 193.33913474 -8.10389066 190.22121644 C-8.23925051 147.27880836 -8.29992399 104.33703956 -8.27288818 61.39440918 C-9.03988037 61.09534668 -9.80687256 60.79628418 -10.59710693 60.48815918 C-13.37390443 59.35311787 -15.79872322 58.09097944 -18.27288818 56.39440918 C-18.27288818 55.73440918 -18.27288818 55.07440918 -18.27288818 54.39440918 C-18.93288818 54.39440918 -19.59288818 54.39440918 -20.27288818 54.39440918 C-26.8113385 45.72385551 -29.24413485 37.02597231 -28.03070068 26.24206543 C-26.63963842 18.16538762 -22.79575598 11.00525897 -16.27288818 5.95690918 C-11.03944491 2.3044019 -6.46556906 0.02247052 0 0 Z M67.07086182 21.45300293 C58.5321614 21.50456487 49.99376962 21.57671686 41.45532227 21.65988159 C38.05433867 21.69260085 34.6533944 21.71892784 31.25231934 21.74002075 C27.20391776 21.76573952 23.15591338 21.80612019 19.10775757 21.85740662 C17.60271956 21.87410329 16.09761615 21.88575833 14.59249878 21.89207458 C12.51797215 21.90167225 10.44445598 21.92960434 8.37017822 21.96203613 C7.20274078 21.97313919 6.03530334 21.98424225 4.83248901 21.99568176 C1.39566652 22.43696643 -0.50915584 23.33770417 -3.27288818 25.39440918 C-4.40912937 27.66689156 -4.53735662 29.17743682 -4.64788818 31.70690918 C-4.69687256 32.46616699 -4.74585693 33.2254248 -4.79632568 34.00769043 C-4.19411618 36.75358599 -3.18945352 38.38458928 -1.15127563 40.32116127 C3.19302445 42.80334937 8.66059928 42.09108149 13.51617432 42.05725098 C14.81585144 42.06761887 16.11552856 42.07798676 17.45458984 42.08866882 C21.01258209 42.11569715 24.56987258 42.11102226 28.12792206 42.09896827 C31.10020074 42.09183175 34.07235005 42.10033959 37.04461861 42.10887367 C44.05674028 42.12881881 51.06852096 42.12326436 58.08062744 42.10119629 C65.3115038 42.07882622 72.54148768 42.09643951 79.77227974 42.13424557 C85.98479065 42.16548511 92.19702536 42.17339411 98.40960503 42.16229182 C102.11827301 42.15580647 105.82642588 42.15779796 109.53503418 42.18161583 C113.66993386 42.20682018 117.80317013 42.18324653 121.93804932 42.15490723 C123.16521667 42.16862366 124.39238403 42.18234009 125.65673828 42.19647217 C131.4451164 42.28577994 131.4451164 42.28577994 136.60302734 40.08515358 C138.93721216 37.38933544 140.40170833 34.86318743 140.22711182 31.26940918 C139.75769423 26.58240322 139.75769423 26.58240322 136.72711182 23.39440918 C130.65663423 21.45394077 124.65210906 21.10968701 118.32867432 21.16394043 C117.41239258 21.16390015 116.49611084 21.16385986 115.55206299 21.16381836 C112.48527459 21.16724763 109.41883015 21.18632777 106.35211182 21.20690918 C104.16510124 21.21589825 101.97808945 21.22459737 99.79107666 21.23303223 C94.23103272 21.25895061 88.67118745 21.29882617 83.11127281 21.34447765 C77.7645045 21.38787717 72.41771108 21.42133651 67.07086182 21.45300293 Z M17.72711182 64.39440918 C17.72711182 104.65440918 17.72711182 144.91440918 17.72711182 186.39440918 C50.72711182 186.39440918 83.72711182 186.39440918 117.72711182 186.39440918 C117.72711182 146.13440918 117.72711182 105.87440918 117.72711182 64.39440918 C84.72711182 64.39440918 51.72711182 64.39440918 17.72711182 64.39440918 Z " fill="#F0F1F1" transform="translate(182.27288818359375,-0.3944091796875)"/>
<path d="M0 0 C34.32 0 68.64 0 104 0 C104.1209091 57.0243153 104.1209091 57.0243153 104.14648438 80.9140625 C104.15237508 86.37272161 104.15841901 91.83138049 104.16479492 97.29003906 C104.16558617 97.97415769 104.16637741 98.65827631 104.16719264 99.3631258 C104.18022727 110.39607901 104.20387136 121.42898514 104.23145839 132.46191047 C104.25955005 143.79146235 104.27595976 155.12097941 104.28226548 166.45056832 C104.2861739 172.81137018 104.29534977 179.17206543 104.31719017 185.5328331 C104.33759069 191.52292589 104.34382652 197.51286839 104.33932304 203.50299263 C104.34014664 205.6983287 104.3460909 207.89366993 104.35761642 210.08897591 C104.37261619 213.09407642 104.36892622 216.09861481 104.36076355 219.10372925 C104.36950207 219.96562799 104.3782406 220.82752674 104.38724393 221.71554363 C104.2886762 235.20755878 98.57105963 247.0693458 89.37890625 256.74609375 C78.25951318 267.28121658 64.88714792 271.36354095 49.859375 271.15234375 C35.09580696 270.56957133 22.62212313 265.09250413 12.3125 254.4375 C2.65028709 243.2043329 -0.34261658 230.13563914 -0.22705078 215.68505859 C-0.22734283 214.70824127 -0.22763489 213.73142395 -0.22793579 212.7250061 C-0.22655507 209.53272259 -0.21105366 206.34067967 -0.1953125 203.1484375 C-0.19157789 200.92070646 -0.18873304 198.69297376 -0.18673706 196.46524048 C-0.17913588 190.62916452 -0.15951783 184.79318962 -0.1373291 178.95715332 C-0.11679465 172.9909807 -0.10771915 167.0247916 -0.09765625 161.05859375 C-0.07626842 149.37235167 -0.04217527 137.68618427 0 126 C0.90242432 125.9906543 1.80484863 125.98130859 2.73461914 125.97167969 C6.11037578 125.9274416 9.48490286 125.86573136 12.86010742 125.79248047 C14.3157196 125.76440414 15.77148046 125.74312368 17.22729492 125.72900391 C28.34222548 125.83956199 28.34222548 125.83956199 38 121 C39.60847182 117.78305636 39.61309149 114.47862778 39 111 C36.82425584 108.30894802 35.08934144 106.54467072 32 105 C29.59463737 104.84393535 27.21276378 104.74187894 24.8046875 104.68359375 C23.51030762 104.64548584 22.21592773 104.60737793 20.88232422 104.56811523 C19.22990723 104.52501221 17.57749023 104.48190918 15.875 104.4375 C10.63625 104.293125 5.3975 104.14875 0 104 C0 90.47 0 76.94 0 63 C16.6875 62.6875 16.6875 62.6875 21.9284668 62.61206055 C23.31041124 62.5797533 24.69233128 62.54637713 26.07421875 62.51171875 C26.78276001 62.50547485 27.49130127 62.49923096 28.22131348 62.49279785 C32.62349641 62.36552254 35.49096878 61.70419614 39 59 C40.22691067 56.54617866 40.20175931 54.80015897 40.25 52.0625 C40.28867188 50.74958984 40.28867188 50.74958984 40.328125 49.41015625 C40.19527036 46.95987325 40.19527036 46.95987325 38.671875 45.24609375 C34.92759987 42.45538401 30.72866799 42.78580677 26.26953125 42.68359375 C25.60417358 42.66494263 24.93881592 42.6462915 24.2532959 42.6270752 C21.77316279 42.55889236 19.29281597 42.49867038 16.8125 42.4375 C11.264375 42.293125 5.71625 42.14875 0 42 C0 28.14 0 14.28 0 0 Z " fill="#02489D" transform="translate(198,208)"/>
<path d="M0 0 C34.32 0 68.64 0 104 0 C104 73.92 104 147.84 104 224 C103.67 224 103.34 224 103 224 C103 150.41 103 76.82 103 1 C69.34 1 35.68 1 1 1 C1.66 13.54 2.32 26.08 3 39 C13.77003646 39.24961979 13.77003646 39.24961979 24.54052734 39.47802734 C25.88901772 39.51322731 27.23748956 39.5491479 28.5859375 39.5859375 C29.28823486 39.59729736 29.99053223 39.60865723 30.71411133 39.62036133 C35.7718564 39.7718564 35.7718564 39.7718564 38 42 C34.09687433 43.31134426 30.22477055 43.03058099 26.171875 42.87890625 C25.50752441 42.85824097 24.84317383 42.83757568 24.15869141 42.81628418 C21.68892527 42.73781853 19.21947728 42.64958398 16.75 42.5625 C11.2225 42.376875 5.695 42.19125 0 42 C0 28.14 0 14.28 0 0 Z " fill="#12437F" transform="translate(198,208)"/>
<path d="M0 0 C34.98 0 69.96 0 106 0 C106 0.33 106 0.66 106 1 C71.68 1 37.36 1 2 1 C2 14.86 2 28.72 2 43 C1.01 42.67 0.02 42.34 -1 42 C-0.67 28.14 -0.34 14.28 0 0 Z " fill="#C7DDF0" transform="translate(196,207)"/>
<path d="M0 0 C0.66 0 1.32 0 2 0 C2.33569297 1.62451419 2.6684796 3.24962917 3 4.875 C3.185625 5.77992188 3.37125 6.68484375 3.5625 7.6171875 C4 10 4 10 4 12 C3.34 12 2.68 12 2 12 C1.731875 12.969375 1.46375 13.93875 1.1875 14.9375 C0.795625 15.948125 0.40375 16.95875 0 18 C-11.71750827 21.90583609 -24.6540006 19.63688237 -37 20 C-37 50.03 -37 80.06 -37 111 C-37.33 111 -37.66 111 -38 111 C-38 80.31 -38 49.62 -38 18 C-22.655 17.505 -22.655 17.505 -7 17 C-0.2773501 14.01695036 -0.2773501 14.01695036 1 11 C1.21377721 5.39296787 1.21377721 5.39296787 0 0 Z " fill="#0E4180" transform="translate(236,316)"/>
<path d="M0 0 C0.33 0 0.66 0 1 0 C1.33 5.61 1.66 11.22 2 17 C4.35898438 17.04898438 6.71796875 17.09796875 9.1484375 17.1484375 C11.42877645 17.20242103 13.70900882 17.25973872 15.98925781 17.31738281 C17.57609138 17.35570585 19.16301281 17.39055288 20.75 17.421875 C23.02896566 17.46745431 25.30732468 17.52545838 27.5859375 17.5859375 C28.29744965 17.59748871 29.00896179 17.60903992 29.74203491 17.62094116 C34.77225659 17.77225659 34.77225659 17.77225659 37 20 C33.09686563 21.31134718 29.22457296 21.03043509 25.171875 20.87890625 C24.42286926 20.85529526 23.67386353 20.83168427 22.90216064 20.80735779 C20.51790112 20.73099344 18.13398895 20.64685283 15.75 20.5625 C14.13022514 20.50925201 12.51043349 20.4565118 10.890625 20.40429688 C6.9268002 20.27636605 2.96354019 20.13791762 -1 20 C-0.67 13.4 -0.34 6.8 0 0 Z " fill="#1A4E92" transform="translate(199,230)"/>
<path d="M0 0 C4.1567916 1.80881308 5.60448293 4.16717269 8 8 C8.66 8.66 9.32 9.32 10 10 C10.309375 10.845625 10.61875 11.69125 10.9375 12.5625 C11.288125 13.366875 11.63875 14.17125 12 15 C12.99 15.33 13.98 15.66 15 16 C15.6875 18.0625 15.6875 18.0625 16 20 C9.16306101 17.08514431 4.44290043 10.58004669 1.5 3.9375 C0.9822272 2.63190911 0.47496121 1.32176704 0 0 Z " fill="#1F518A" transform="translate(202,448)"/>
<path d="M0 0 C-8.56015274 7.0252288 -19.52874687 6.38154364 -30 6 C-30 5.67 -30 5.34 -30 5 C-28.87980469 4.87882812 -27.75960937 4.75765625 -26.60546875 4.6328125 C-25.13276364 4.46396733 -23.66010996 4.29467303 -22.1875 4.125 C-21.44951172 4.04636719 -20.71152344 3.96773438 -19.95117188 3.88671875 C-16.28493819 3.45539714 -14.12048255 3.0803217 -11 1 C-7.28759166 0.19295471 -3.79349787 -0.11157347 0 0 Z " fill="#265491" transform="translate(274,473)"/>
<path d="M0 0 C0.33 0 0.66 0 1 0 C1.95452646 9.26925695 2.68619011 17.19792922 -1 26 C-1.5878125 27.546875 -1.5878125 27.546875 -2.1875 29.125 C-2.455625 29.74375 -2.72375 30.3625 -3 31 C-4.11563018 27.62953982 -3.86843709 25.25980759 -3.125 21.8125 C-2.94195312 20.93207031 -2.75890625 20.05164063 -2.5703125 19.14453125 C-2 17 -2 17 -1 16 C-0.76321284 13.30764224 -0.57801975 10.63501844 -0.4375 7.9375 C-0.39431641 7.17888672 -0.35113281 6.42027344 -0.30664062 5.63867188 C-0.20026367 3.75934562 -0.09960066 1.87969756 0 0 Z " fill="#184D91" transform="translate(300,421)"/>
<path d="M0 0 C4.76881876 -0.09900135 9.5370373 -0.17152928 14.30664062 -0.21972656 C15.92849143 -0.23982144 17.55026997 -0.26710254 19.171875 -0.30175781 C21.5053898 -0.3503727 23.83794557 -0.37298889 26.171875 -0.390625 C27.25647003 -0.42159271 27.25647003 -0.42159271 28.36297607 -0.45318604 C31.94689971 -0.45477743 33.66477962 -0.27262136 36.48925781 2.02441406 C36.98780273 2.67635742 37.48634766 3.32830078 38 4 C33.25 3.125 33.25 3.125 31 2 C28.67583704 1.91413191 26.34916693 1.89288957 24.0234375 1.90234375 C23.33819 1.9037587 22.6529425 1.90517365 21.94692993 1.90663147 C19.75624239 1.91223325 17.5656567 1.92478594 15.375 1.9375 C13.89062648 1.94251478 12.40625135 1.94707772 10.921875 1.95117188 C7.28121685 1.96220323 3.64061836 1.97946901 0 2 C0 1.34 0 0.68 0 0 Z " fill="#E8F9FD" transform="translate(198,313)"/>
<path d="M0 0 C0.64582031 0.0721875 1.29164063 0.144375 1.95703125 0.21875 C11.64271582 1.17274356 21.28019992 1.09150439 31 1 C24.33389663 5.44406891 15.34008354 4.85476585 7.6328125 3.62109375 C4.66985654 2.81359288 2.57202204 1.71468136 0 0 Z " fill="#DAECF9" transform="translate(232,477)"/>
<path d="M0 0 C0.66 0 1.32 0 2 0 C2.33569297 1.62451419 2.6684796 3.24962917 3 4.875 C3.185625 5.77992188 3.37125 6.68484375 3.5625 7.6171875 C4 10 4 10 4 12 C3.34 12 2.68 12 2 12 C1.34 13.98 0.68 15.96 0 18 C-2.31 18.33 -4.62 18.66 -7 19 C-7 18.34 -7 17.68 -7 17 C-5.20963542 16.0234375 -3.41927083 15.046875 -1.62890625 14.0703125 C0.16618315 13.08589976 0.16618315 13.08589976 1 11 C1.21377721 5.39296787 1.21377721 5.39296787 0 0 Z " fill="#225390" transform="translate(236,316)"/>
<path d="M0 0 C5.65020618 0.60108576 10.66164461 2.07528683 16 4 C16 4.66 16 5.32 16 6 C10.03435204 5.49228528 5.36190101 3.61407872 0 1 C0 0.67 0 0.34 0 0 Z " fill="#2D5A93" transform="translate(224,472)"/>
<path d="M0 0 C0.33 0 0.66 0 1 0 C1.66 6.6 2.32 13.2 3 20 C0 17 0 17 -0.34057617 15.09887695 C-0.32486572 14.40238037 -0.30915527 13.70588379 -0.29296875 12.98828125 C-0.28330078 12.23095703 -0.27363281 11.47363281 -0.26367188 10.69335938 C-0.23853516 9.90767578 -0.21339844 9.12199219 -0.1875 8.3125 C-0.17396484 7.51521484 -0.16042969 6.71792969 -0.14648438 5.89648438 C-0.11117089 3.93070033 -0.05736447 1.96526418 0 0 Z " fill="#D4E8F6" transform="translate(197,424)"/>
<path d="M0 0 C-0.625 1.875 -0.625 1.875 -2 4 C-5.75263725 5.66783878 -8.91226018 6.24045528 -13 6 C-10.65890118 4.43926745 -8.43666597 3.13626133 -5.9375 1.875 C-5.24527344 1.52179688 -4.55304688 1.16859375 -3.83984375 0.8046875 C-2 0 -2 0 0 0 Z " fill="#DAEAF6" transform="translate(280,471)"/>
<path d="M0 0 C0.66 0.33 1.32 0.66 2 1 C1.04663979 2.31611677 0.08714226 3.62778961 -0.875 4.9375 C-1.40867187 5.66839844 -1.94234375 6.39929688 -2.4921875 7.15234375 C-4 9 -4 9 -6 10 C-6 6 -6 6 -3.5625 3.3125 C-2.716875 2.549375 -1.87125 1.78625 -1 1 C-0.67 0.67 -0.34 0.34 0 0 Z " fill="#1F4F8B" transform="translate(293,454)"/>
<path d="M0 0 C1 2 1 2 0.22265625 4.3828125 C-0.16019531 5.28773438 -0.54304688 6.19265625 -0.9375 7.125 C-1.31777344 8.03507812 -1.69804687 8.94515625 -2.08984375 9.8828125 C-2.39019531 10.58148438 -2.69054687 11.28015625 -3 12 C-4.46538911 7.57452487 -3.0196077 5.11689261 -1 1 C-0.67 0.67 -0.34 0.34 0 0 Z " fill="#2A5992" transform="translate(300,440)"/>
<path d="M0 0 C2 1.3125 2 1.3125 4 3 C4 3.99 4 4.98 4 6 C3.01 6 2.02 6 1 6 C0.34 4.35 -0.32 2.7 -1 1 C-0.67 0.67 -0.34 0.34 0 0 Z " fill="#12488A" transform="translate(208,455)"/>
<path d="M0 0 C2.97 1.98 2.97 1.98 6 4 C5.01 5.485 5.01 5.485 4 7 C2 5.1875 2 5.1875 0 3 C0 2.01 0 1.02 0 0 Z " fill="#DCF0FB" transform="translate(212,464)"/>
</svg>
