<?xml version="1.0" encoding="UTF-8"?>
<svg version="1.1" xmlns="http://www.w3.org/2000/svg" width="500" height="500">
<path d="M0 0 C1.40396249 -0.00678936 2.80791605 -0.01569985 4.21185303 -0.02655029 C7.99716101 -0.04919434 11.78178172 -0.04056993 15.56710052 -0.02465487 C19.54491406 -0.01191788 23.52267221 -0.02375748 27.50048828 -0.03158569 C34.17816639 -0.04065972 40.8555672 -0.02875371 47.53320312 -0.00488281 C55.23261553 0.02232437 62.93136573 0.0135086 70.6307621 -0.01401484 C77.26381881 -0.03676933 83.89667719 -0.03987518 90.52976036 -0.02682149 C94.4815594 -0.01906163 98.43304807 -0.017889 102.38482666 -0.03450394 C106.10177564 -0.04904244 109.81787825 -0.0387587 113.53473663 -0.01003265 C115.53419357 -0.00036357 117.53372285 -0.01504168 119.53314209 -0.03067017 C128.65172704 0.07549922 135.34742079 1.89667423 142.390625 7.82275391 C149.56644348 16.39299999 153.58567295 23.69353229 152.5859375 35.15478516 C151.56937277 41.39101878 149.43214116 47.43626574 145.8046875 52.64697266 C143.640625 53.92822266 143.640625 53.92822266 141.8046875 54.64697266 C141.8046875 55.30697266 141.8046875 55.96697266 141.8046875 56.64697266 C138.8346875 58.29697266 135.8646875 59.94697266 132.8046875 61.64697266 C132.80295125 62.40899412 132.801215 63.17101558 132.79942614 63.9561286 C132.69631224 109.15813023 132.5881816 154.36011748 132.47357056 199.5620915 C132.45980161 204.99419372 132.44607442 210.42629605 132.43237305 215.85839844 C132.42964474 216.93979463 132.42691644 218.02119083 132.42410546 219.13535661 C132.38007649 236.62619565 132.33942701 254.11704099 132.30003489 271.60789102 C132.25951458 289.56613496 132.21534297 307.52436726 132.16780895 325.48259401 C132.13861178 336.55637593 132.11223456 347.6301571 132.08950853 358.70395422 C132.07363366 366.30617442 132.05419989 373.90838044 132.03201909 381.51058483 C132.01934136 385.89119254 132.00818326 390.27178959 132.00126839 394.65241051 C131.99488597 398.67361925 131.98397186 402.69479084 131.9696542 406.71597892 C131.9652754 408.16039528 131.9624717 409.6048176 131.96152551 411.04924029 C131.93951182 439.29075481 131.93951182 439.29075481 128.6171875 449.45947266 C128.39796631 450.16322021 128.17874512 450.86696777 127.95288086 451.59204102 C125.00856843 460.62767772 120.41111427 469.702265 113.8046875 476.64697266 C113.1446875 476.64697266 112.4846875 476.64697266 111.8046875 476.64697266 C111.57007813 477.21931641 111.33546875 477.79166016 111.09375 478.38134766 C106.94101152 485.68010014 98.16139034 490.30212204 90.8671875 494.02197266 C90.24827637 494.34327148 89.62936523 494.66457031 88.99169922 494.99560547 C78.98210155 499.86291689 68.82504653 501.13976747 57.8046875 501.02197266 C56.71929687 501.03357422 55.63390625 501.04517578 54.515625 501.05712891 C43.44255154 501.01748783 33.7975074 498.70050321 24.0546875 493.45947266 C23.34570312 493.09144531 22.63671875 492.72341797 21.90625 492.34423828 C20.19981294 491.45642981 18.50130134 490.55341228 16.8046875 489.64697266 C16.8046875 488.98697266 16.8046875 488.32697266 16.8046875 487.64697266 C16.1446875 487.46134766 15.4846875 487.27572266 14.8046875 487.08447266 C10.53563482 485.03888491 7.06305044 482.07512622 3.8046875 478.64697266 C3.8046875 477.98697266 3.8046875 477.32697266 3.8046875 476.64697266 C3.1446875 476.64697266 2.4846875 476.64697266 1.8046875 476.64697266 C-12.94805091 459.46079286 -15.79903022 440.26383987 -15.7253418 418.58618164 C-15.73247542 416.37395052 -15.74136636 414.16172449 -15.75186062 411.94950676 C-15.7754826 405.94043089 -15.77481293 399.93157377 -15.76997423 393.9224627 C-15.76922419 387.52331768 -15.7916008 381.12425164 -15.81149292 374.72514343 C-15.84245027 363.82303982 -15.85992804 352.92100201 -15.86746216 342.01885986 C-15.8788501 325.81572445 -15.91471393 309.61270407 -15.9571421 293.40962338 C-15.97179102 287.79732356 -15.98599584 282.18502258 -16.00021719 276.57272166 C-16.00376257 275.17523053 -16.00732058 273.77773943 -16.01089127 272.38024837 C-16.03573387 262.64364414 -16.05747248 252.90703763 -16.07667986 243.17042071 C-16.15989076 201.08802799 -16.36458312 159.00793202 -16.72262955 116.92699051 C-16.75798736 112.76789305 -16.79212796 108.60878615 -16.82601929 104.44967651 C-16.94248649 90.1820469 -17.0640031 75.91447362 -17.1953125 61.64697266 C-21.6503125 59.17197266 -21.6503125 59.17197266 -26.1953125 56.64697266 C-26.1953125 55.98697266 -26.1953125 55.32697266 -26.1953125 54.64697266 C-26.8553125 54.64697266 -27.5153125 54.64697266 -28.1953125 54.64697266 C-29.6328125 53.10791016 -29.6328125 53.10791016 -31.1953125 51.02197266 C-31.96875 50.01263672 -31.96875 50.01263672 -32.7578125 48.98291016 C-36.18127861 43.41977773 -36.55970908 38.1234211 -36.5703125 31.77197266 C-36.59480469 31.00755859 -36.61929688 30.24314453 -36.64453125 29.45556641 C-36.68442141 21.62379895 -33.66893604 15.82831379 -28.5703125 9.95947266 C-27.97992188 9.25435547 -27.38953125 8.54923828 -26.78125 7.82275391 C-18.4918544 0.8481416 -10.56904099 -0.08261302 0 0 Z M-11.1953125 23.64697266 C-13.507743 26.53751078 -14.16909755 28.46346804 -14.6953125 32.14697266 C-14.06819595 36.53678853 -12.54753895 37.86707755 -9.1953125 40.64697266 C-8.8653125 40.97697266 -8.5353125 41.30697266 -8.1953125 41.64697266 C-6.49856563 41.75189383 -4.79744427 41.78662317 -3.09747314 41.79414368 C-1.99265594 41.80129898 -0.88783875 41.80845428 0.25045776 41.81582642 C2.08472824 41.81985977 2.08472824 41.81985977 3.95605469 41.82397461 C5.23564056 41.83054581 6.51522644 41.837117 7.83358765 41.84388733 C11.35440673 41.86132346 14.87521221 41.87185665 18.3960638 41.88009286 C20.59501063 41.88523857 22.7939532 41.89131457 24.99289703 41.89760399 C31.87052971 41.91666526 38.74815159 41.93089313 45.62580562 41.93921596 C53.56892257 41.94898617 61.51176069 41.97529582 69.45477939 42.01571685 C75.59071044 42.04587149 81.72656156 42.06068429 87.86256528 42.06399697 C91.52874939 42.06634869 95.19463594 42.07532392 98.86074066 42.10045815 C102.95258638 42.12805642 107.04380935 42.12390978 111.13574219 42.11694336 C112.35049225 42.12975342 113.56524231 42.14256348 114.81680298 42.15576172 C121.23275749 42.17662595 121.23275749 42.17662595 127.03399658 39.74259949 C130.16876929 36.03257098 130.1318162 33.47212103 129.8046875 28.64697266 C128.10588575 24.82466873 126.66016768 23.16868681 122.8046875 21.64697266 C120.23675679 21.3477892 120.23675679 21.3477892 117.4152832 21.39300537 C116.32172516 21.38736572 115.22816711 21.38172607 114.10147095 21.37591553 C112.30907486 21.38198822 112.30907486 21.38198822 110.48046875 21.38818359 C109.21834564 21.38467896 107.95622253 21.38117432 106.65585327 21.37756348 C103.19721508 21.36844935 99.73869627 21.37197967 96.280056 21.37832165 C92.65976389 21.3833867 89.03948197 21.37868879 85.41918945 21.37554932 C79.33966233 21.37191115 73.26018381 21.37670485 67.18066406 21.38623047 C60.15286394 21.39711475 53.12517986 21.39358907 46.09738255 21.38257766 C40.0624597 21.37350053 34.02757178 21.37222158 27.99264431 21.377455 C24.38868241 21.38057236 20.78477504 21.38099046 17.18081665 21.37438202 C13.16344331 21.36753002 9.14626991 21.37702826 5.12890625 21.38818359 C3.93397552 21.38413513 2.7390448 21.38008667 1.50790405 21.37591553 C-0.13243301 21.384375 -0.13243301 21.384375 -1.8059082 21.39300537 C-2.75569046 21.39375942 -3.70547272 21.39451347 -4.68403625 21.39529037 C-7.35001047 21.66247662 -8.94157429 22.22184434 -11.1953125 23.64697266 Z M6.8046875 63.64697266 C6.8046875 104.56697266 6.8046875 145.48697266 6.8046875 187.64697266 C40.4646875 187.64697266 74.1246875 187.64697266 108.8046875 187.64697266 C108.8046875 146.72697266 108.8046875 105.80697266 108.8046875 63.64697266 C75.1446875 63.64697266 41.4846875 63.64697266 6.8046875 63.64697266 Z " fill="#0C0C0D" transform="translate(192.1953125,-0.64697265625)"/>
<path d="M0 0 C34.32 0 68.64 0 104 0 C104.16121214 56.6929348 104.16121214 56.6929348 104.1953125 80.4609375 C104.20316656 85.89160203 104.21122506 91.32226613 104.21972656 96.75292969 C104.22078156 97.43352188 104.22183655 98.11411407 104.22292352 98.81533027 C104.24029401 109.78553142 104.27181441 120.75564823 104.30861118 131.72579947 C104.34609199 142.99433323 104.36795173 154.26282507 104.37635398 165.53142428 C104.38156089 171.85655654 104.39376762 178.18149792 104.42292023 184.50656891 C104.45016162 190.46550962 104.45842727 196.42418164 104.45243073 202.38317871 C104.45352705 204.5647808 104.46142856 206.74639231 104.4768219 208.92794037 C104.61900609 230.12622995 104.61900609 230.12622995 100 240 C99.62216496 240.81954792 99.24432991 241.63909584 98.85504532 242.48347855 C93.10063332 254.30377693 82.54424059 263.82949563 70.2734375 268.3828125 C56.00686821 272.68698201 41.39558851 273.09806084 28 266 C15.35554182 258.3855732 5.52780338 247.53476699 1.46519661 233.09977055 C0.04703669 227.23389721 -0.27450363 221.72582207 -0.22705078 215.70678711 C-0.22734283 214.72036224 -0.22763489 213.73393738 -0.22793579 212.71762085 C-0.22655284 209.48743607 -0.21104062 206.25748777 -0.1953125 203.02734375 C-0.19157869 200.7757632 -0.18873346 198.52418102 -0.18673706 196.27259827 C-0.1791296 190.36910453 -0.15950602 184.46571044 -0.1373291 178.56225586 C-0.11680833 172.52914782 -0.10772205 166.49602356 -0.09765625 160.46289062 C-0.07625731 148.6418835 -0.0421564 136.82095006 0 125 C1.55895996 124.97812622 1.55895996 124.97812622 3.14941406 124.95581055 C7.01125215 124.89776819 10.87251076 124.8205362 14.73388672 124.73754883 C16.40403833 124.7043273 18.07430146 124.67628666 19.74462891 124.65356445 C22.14794363 124.61996666 24.55023899 124.56765054 26.953125 124.51171875 C28.0705307 124.50213387 28.0705307 124.50213387 29.21051025 124.49235535 C32.36284627 124.40326956 34.65478795 124.19018435 37.44042969 122.65551758 C39.78717615 120.16439551 40.00186911 117.98317799 40.375 114.625 C40.30720864 110.92956195 40.30720864 110.92956195 37.9855957 108.31762695 C34.26612243 105.43031321 31.38404019 105.26823338 26.85546875 105.29296875 C26.17246704 105.27834595 25.48946533 105.26372314 24.7857666 105.24865723 C22.25336684 105.2015657 19.72031973 105.19700595 17.1875 105.1875 C11.515625 105.125625 5.84375 105.06375 0 105 C0 91.14 0 77.28 0 63 C17.1875 62.75 17.1875 62.75 22.58666992 62.70214844 C24.00963552 62.67276497 25.43257233 62.64193671 26.85546875 62.609375 C27.58560181 62.60824707 28.31573486 62.60711914 29.06799316 62.60595703 C33.96250294 62.46932731 36.60132657 61.55445615 40 58 C40.82175865 55.34318762 40.82175865 55.34318762 40.6875 52.5 C40.72423828 51.09234375 40.72423828 51.09234375 40.76171875 49.65625 C40.20093635 46.7637224 40.20093635 46.7637224 37.45385742 44.87207031 C33.50484658 42.73161544 30.35786191 42.39765033 25.9765625 42.390625 C25.31422607 42.37499512 24.65188965 42.35936523 23.96948242 42.34326172 C21.52167989 42.29110325 19.07325505 42.27247157 16.625 42.25 C8.395625 42.12625 8.395625 42.12625 0 42 C0 28.14 0 14.28 0 0 Z " fill="#014AA5" transform="translate(198,208)"/>
<path d="M0 0 C34.32 0 68.64 0 104 0 C104.16121214 56.6929348 104.16121214 56.6929348 104.1953125 80.4609375 C104.20316656 85.89160203 104.21122506 91.32226613 104.21972656 96.75292969 C104.22078156 97.43352188 104.22183655 98.11411407 104.22292352 98.81533027 C104.24029401 109.78553142 104.27181441 120.75564823 104.30861118 131.72579947 C104.34609199 142.99433323 104.36795173 154.26282507 104.37635398 165.53142428 C104.38156089 171.85655654 104.39376762 178.18149792 104.42292023 184.50656891 C104.45016162 190.46550962 104.45842727 196.42418164 104.45243073 202.38317871 C104.45352705 204.5647808 104.46142856 206.74639231 104.4768219 208.92794037 C104.61882871 230.09978491 104.61882871 230.09978491 100 240 C99.67 240 99.34 240 99 240 C98.875 232.375 98.875 232.375 100 229 C100.66 229 101.32 229 102 229 C102.33 153.76 102.66 78.52 103 1 C69.34 1 35.68 1 1 1 C1.33 13.87 1.66 26.74 2 40 C13.99649149 40.09132681 13.99649149 40.09132681 25.99316406 40.11767578 C27.50068953 40.14120619 29.00818295 40.16693673 30.515625 40.1953125 C31.29405762 40.1862085 32.07249023 40.17710449 32.87451172 40.16772461 C35.14941406 40.22705078 35.14941406 40.22705078 39 41 C43.14836417 45.77499916 43.60588467 49.32419378 43.40625 55.4296875 C42.86717015 58.84040427 41.53674537 60.70107451 39 63 C37.68 62.67 36.36 62.34 35 62 C35.825 61.566875 36.65 61.13375 37.5 60.6875 C40.88616646 57.04737106 40.63608844 54.46987455 40.76171875 49.65625 C40.20093635 46.7637224 40.20093635 46.7637224 37.45385742 44.87207031 C33.50484658 42.73161544 30.35786191 42.39765033 25.9765625 42.390625 C25.31422607 42.37499512 24.65188965 42.35936523 23.96948242 42.34326172 C21.52167989 42.29110325 19.07325505 42.27247157 16.625 42.25 C8.395625 42.12625 8.395625 42.12625 0 42 C0 28.14 0 14.28 0 0 Z " fill="#184887" transform="translate(198,208)"/>
<path d="M0 0 C1.17113799 0.00138269 1.17113799 0.00138269 2.36593533 0.00279331 C3.70584782 0.00073132 3.70584782 0.00073132 5.07282925 -0.00137234 C6.55420376 0.00402058 6.55420376 0.00402058 8.06550503 0.00952244 C9.09952953 0.00937641 10.13355404 0.00923038 11.19891262 0.00907993 C14.63485175 0.00977956 18.07073742 0.01757425 21.50666714 0.02539158 C23.88178382 0.02725558 26.25690089 0.02867957 28.63201809 0.0296793 C34.89727233 0.03350586 41.16250356 0.04333732 47.42774868 0.05438328 C53.81537979 0.06459443 60.2030146 0.06917628 66.59065151 0.0742197 C79.13428115 0.08495947 91.6778948 0.10184656 104.22151089 0.12304783 C104.39468186 29.19410396 104.55748763 58.26520177 104.70582382 87.33639575 C104.72334551 90.76853538 104.74095557 94.20067455 104.75862026 97.63281345 C104.7621355 98.31609037 104.76565073 98.99936729 104.76927249 99.70334958 C104.82640103 110.76679223 104.89068851 121.8301823 104.95762189 132.89356948 C105.02614261 144.2456699 105.08681786 155.59778877 105.14065492 166.94997013 C105.17114314 173.32629122 105.20521164 179.70254829 105.24777508 186.07880116 C105.287714 192.07867098 105.31817382 198.07851381 105.34132481 204.07847118 C105.35150502 206.28194866 105.3651656 208.48541319 105.38254642 210.68884563 C105.40574272 213.69520558 105.41646306 216.70136118 105.42405605 219.70779514 C105.438631 221.01812031 105.438631 221.01812031 105.45350039 222.35491669 C105.45061844 227.03377054 104.98396899 230.71509921 103.22151089 235.12304783 C102.53589555 237.72989297 101.85555666 240.3370827 101.19807339 242.95117283 C100.22151089 245.12304783 100.22151089 245.12304783 98.11994839 246.41992283 C97.18022182 246.7679697 97.18022182 246.7679697 96.22151089 247.12304783 C97.14625939 244.2629772 98.07757027 241.45543367 99.27263165 238.69581318 C103.46239926 228.40226306 102.79554681 217.74829473 102.76740932 206.83105564 C102.77615435 204.58300152 102.78664336 202.33495362 102.79873562 200.08691502 C102.82650204 194.01338924 102.83000236 187.94006752 102.82901573 181.8664875 C102.83215287 175.50833772 102.85778777 169.15027874 102.88099575 162.79217625 C102.91690213 152.13000094 102.93904399 141.46788725 102.95051479 130.80566502 C102.96236185 119.82906729 102.98263958 108.85253756 103.01399136 97.87597752 C103.01593687 97.1912028 103.01788238 96.50642807 103.01988685 95.80090261 C103.03688568 89.84328949 103.05451832 83.88567829 103.07221317 77.92806721 C103.14743335 52.32639917 103.1810657 26.72484912 103.22151089 1.12304783 C68.90151089 1.12304783 34.58151089 1.12304783 -0.77848911 1.12304783 C-0.77848911 14.98304783 -0.77848911 28.84304783 -0.77848911 43.12304783 C-1.43848911 43.12304783 -2.09848911 43.12304783 -2.77848911 43.12304783 C-2.80313485 37.15991616 -2.82132311 31.19681388 -2.83342075 25.23364353 C-2.83846189 23.20336484 -2.84529468 21.17308981 -2.85392857 19.14282322 C-2.86600379 16.23127436 -2.87171946 13.31977333 -2.87614536 10.40820408 C-2.88130665 9.49466663 -2.88646793 8.58112919 -2.89178562 7.63990879 C-2.89198079 5.46729356 -2.84060716 3.29477487 -2.77848911 1.12304783 C-1.77848911 0.12304783 -1.77848911 0.12304783 0 0 Z " fill="#000E2E" transform="translate(198.778489112854,206.87695217132568)"/>
<path d="M0 0 C11.22 0 22.44 0 34 0 C34 0.33 34 0.66 34 1 C23.11 1 12.22 1 1 1 C1 13.87 1 26.74 1 40 C10.51327336 39.59361975 10.51327336 39.59361975 20.02539062 39.16162109 C32.80107439 38.6754029 32.80107439 38.6754029 39 41 C42.10180976 44.97419376 42.47549436 48.85523193 42.28515625 53.74609375 C41.82089924 57.41563203 40.92668553 59.81100327 39 63 C35.07869838 64.21064746 31.09926329 64.16594025 27.01953125 64.24609375 C25.67772694 64.27899504 24.33593022 64.31220723 22.99414062 64.34570312 C20.89400834 64.39330448 18.79391469 64.43784477 16.69360352 64.47680664 C14.65611586 64.51640404 12.61920362 64.56792875 10.58203125 64.62109375 C9.36749268 64.6461499 8.1529541 64.67120605 6.90161133 64.69702148 C3.87496181 64.70513934 3.87496181 64.70513934 2 67 C1.79064043 69.86803259 1.70636587 72.64025561 1.70947266 75.51025391 C1.70275543 76.39192734 1.69603821 77.27360077 1.68911743 78.18199158 C1.67003856 81.11357189 1.66620624 84.04492384 1.6640625 86.9765625 C1.6576341 89.0204579 1.65090571 91.06435238 1.64389038 93.10824585 C1.63188781 97.40747198 1.62821188 101.70661766 1.62939453 106.00585938 C1.62959622 111.474937 1.60246433 116.94348614 1.56785011 122.41243935 C1.54542192 126.64395434 1.54156206 130.87534622 1.54261398 135.10691452 C1.54027534 137.12003754 1.53155148 139.13316487 1.51594925 141.14622879 C1.41286472 155.84067207 3.26395888 168.0377017 8 182 C8.66 182 9.32 182 10 182 C10.2475 182.78375 10.495 183.5675 10.75 184.375 C12.15389099 187.32317108 13.00675737 187.9024777 16 189 C16 189.99 16 190.98 16 192 C17.32 192.66 18.64 193.32 20 194 C20 194.66 20 195.32 20 196 C21.98 196.66 23.96 197.32 26 198 C25.67 198.99 25.34 199.98 25 201 C12.16091516 192.18886334 3.74648282 180.89802988 0.42261124 165.53230476 C-0.2908396 161.25727658 -0.26114325 157.03115894 -0.22705078 152.70678711 C-0.22734283 151.72036224 -0.22763489 150.73393738 -0.22793579 149.71762085 C-0.22655284 146.48743607 -0.21104062 143.25748777 -0.1953125 140.02734375 C-0.19157869 137.7757632 -0.18873346 135.52418102 -0.18673706 133.27259827 C-0.1791296 127.36910453 -0.15950602 121.46571044 -0.1373291 115.56225586 C-0.11680833 109.52914782 -0.10772205 103.49602356 -0.09765625 97.46289062 C-0.07625731 85.6418835 -0.0421564 73.82095006 0 62 C1.03930664 61.98541748 2.07861328 61.97083496 3.14941406 61.95581055 C7.01125215 61.89776819 10.87251076 61.8205362 14.73388672 61.73754883 C16.40403833 61.7043273 18.07430146 61.67628666 19.74462891 61.65356445 C22.14794363 61.61996666 24.55023899 61.56765054 26.953125 61.51171875 C27.69806213 61.50532883 28.44299927 61.4989389 29.21051025 61.49235535 C32.36284627 61.40326956 34.65478795 61.19018435 37.44042969 59.65551758 C39.78717615 57.16439551 40.00186911 54.98317799 40.375 51.625 C40.30720864 47.92956195 40.30720864 47.92956195 37.9855957 45.31762695 C34.26612243 42.43031321 31.38404019 42.26823338 26.85546875 42.29296875 C26.17246704 42.27834595 25.48946533 42.26372314 24.7857666 42.24865723 C22.25336684 42.2015657 19.72031973 42.19700595 17.1875 42.1875 C11.515625 42.125625 5.84375 42.06375 0 42 C0 28.14 0 14.28 0 0 Z " fill="#13417F" transform="translate(198,271)"/>
<path d="M0 0 C1.07950424 -0.00571014 2.15900848 -0.01142029 3.27122498 -0.01730347 C4.46085342 -0.01842133 5.65048187 -0.01953918 6.87615967 -0.02069092 C8.74945702 -0.02813828 8.74945702 -0.02813828 10.66059875 -0.03573608 C14.09260755 -0.04785937 17.52455529 -0.05530701 20.95657825 -0.05974674 C23.10109788 -0.06267688 25.24561215 -0.06678164 27.39012909 -0.07125092 C34.10064172 -0.08492984 40.81114211 -0.09459382 47.52166772 -0.09845281 C55.26605397 -0.10293076 63.01026348 -0.12046467 70.75459599 -0.1494534 C76.74109611 -0.17108339 82.72754657 -0.18115783 88.71408534 -0.18249393 C92.28912696 -0.18354128 95.86400254 -0.18943366 99.43900299 -0.20731354 C103.42983168 -0.22688394 107.42044041 -0.22249996 111.41131592 -0.21600342 C112.59284744 -0.2252182 113.77437897 -0.23443298 114.99171448 -0.243927 C120.77906305 -0.21437886 125.01974323 -0.11076336 129.90252686 3.14044189 C129.57252686 3.80044189 129.24252686 4.46044189 128.90252686 5.14044189 C128.07967792 4.89742041 128.07967792 4.89742041 127.24020576 4.6494894 C124.597549 4.07403063 122.20497604 4.00663196 119.49966431 3.99568176 C118.40321594 3.98878326 117.30676758 3.98188477 116.17709351 3.97477722 C114.37998428 3.97085716 114.37998428 3.97085716 112.54656982 3.96685791 C110.60435669 3.95659375 108.66214357 3.94632742 106.71993089 3.93597877 C104.6350463 3.92575884 102.55016407 3.91790218 100.46526718 3.91064644 C96.12091853 3.89518273 91.77664244 3.87123614 87.43234253 3.8457489 C75.08016538 3.77456801 62.72794772 3.71466503 50.37567139 3.66363525 C43.55116649 3.63536706 36.72673483 3.60001101 29.90230668 3.5569815 C25.58091398 3.53016411 21.25960408 3.51228738 16.93814445 3.50094426 C13.62527039 3.48970596 10.31251343 3.46557708 6.99969482 3.44342041 C5.79757355 3.44283127 4.59545227 3.44224213 3.35690308 3.44163513 C2.26609436 3.43191681 1.17528564 3.42219849 0.05142212 3.41218567 C-0.90020372 3.40795373 -1.85182957 3.40372179 -2.83229256 3.39936161 C-5.09747314 3.14044189 -5.09747314 3.14044189 -7.09747314 1.14044189 C-4.57207489 -0.12225723 -2.82763715 0.00893244 0 0 Z " fill="#080808" transform="translate(190.09747314453125,17.85955810546875)"/>
<path d="M0 0 C1.98 0.495 1.98 0.495 4 1 C4 1.66 4 2.32 4 3 C4.99 3.495 4.99 3.495 6 4 C7.19347896 8.34767336 7.32262345 10.34280409 5.3125 14.4375 C4.1678125 15.7059375 4.1678125 15.7059375 3 17 C1.68 17 0.36 17 -1 17 C-1.66 18.32 -2.32 19.64 -3 21 C-19.91543667 20.91619655 -36.83076675 20.8210992 -53.74606133 20.71247292 C-61.59973061 20.66230312 -69.45338922 20.61586082 -77.30712891 20.578125 C-84.15065617 20.54523369 -90.99410169 20.50541853 -97.83753884 20.45720994 C-101.46271242 20.43191631 -105.08783158 20.41014365 -108.71306992 20.39665604 C-112.75528506 20.38148756 -116.79723868 20.35086452 -120.83935547 20.31884766 C-122.65196365 20.31560738 -122.65196365 20.31560738 -124.50119019 20.31230164 C-125.59777954 20.30113815 -126.6943689 20.28997467 -127.82418823 20.2784729 C-129.25941991 20.27017676 -129.25941991 20.27017676 -130.72364616 20.26171303 C-133 20 -133 20 -135 18 C-134.3243163 17.99945523 -133.6486326 17.99891047 -132.95247364 17.99834919 C-116.51051199 17.98338098 -100.06887422 17.94093286 -83.62707233 17.86790943 C-75.67591091 17.8332582 -67.72492287 17.80790376 -59.77368164 17.80444336 C-52.84324259 17.80140362 -45.91311233 17.78091225 -38.98279256 17.73947543 C-35.31324026 17.71814411 -31.64412695 17.70554519 -27.9745121 17.71384621 C-23.87751327 17.72278698 -19.78168738 17.6927652 -15.68481445 17.65942383 C-14.46849335 17.66804947 -13.25217224 17.67667511 -11.99899292 17.68556213 C-5.32949824 17.79538709 -5.32949824 17.79538709 0.26545715 14.67753601 C2.53694519 11.17114178 2.51390924 9.11127395 2 5 C1.1025173 2.16621868 1.1025173 2.16621868 0 0 Z " fill="#5F5F60" transform="translate(319,23)"/>
<path d="M0 0 C34.32 0 68.64 0 104 0 C104 0.33 104 0.66 104 1 C70.01 1 36.02 1 1 1 C1.33 13.87 1.66 26.74 2 40 C13.99649149 40.09132681 13.99649149 40.09132681 25.99316406 40.11767578 C27.50068953 40.14120619 29.00818295 40.16693673 30.515625 40.1953125 C31.29405762 40.1862085 32.07249023 40.17710449 32.87451172 40.16772461 C35.14941406 40.22705078 35.14941406 40.22705078 39 41 C43.14836417 45.77499916 43.60588467 49.32419378 43.40625 55.4296875 C42.86717015 58.84040427 41.53674537 60.70107451 39 63 C37.68 62.67 36.36 62.34 35 62 C35.825 61.566875 36.65 61.13375 37.5 60.6875 C40.88616646 57.04737106 40.63608844 54.46987455 40.76171875 49.65625 C40.20093635 46.7637224 40.20093635 46.7637224 37.45385742 44.87207031 C33.50484658 42.73161544 30.35786191 42.39765033 25.9765625 42.390625 C25.31422607 42.37499512 24.65188965 42.35936523 23.96948242 42.34326172 C21.52167989 42.29110325 19.07325505 42.27247157 16.625 42.25 C8.395625 42.12625 8.395625 42.12625 0 42 C0 28.14 0 14.28 0 0 Z " fill="#0E3E7D" transform="translate(198,208)"/>
<path d="M0 0 C1.9609375 1.1640625 1.9609375 1.1640625 4 3 C4.6015625 5.5234375 4.6015625 5.5234375 4.625 8.375 C4.67527344 9.77878906 4.67527344 9.77878906 4.7265625 11.2109375 C3.87221786 14.49051853 2.44432145 15.87111844 -0.17990112 17.95166016 C-3.36576113 19.78665056 -6.6840401 19.61381873 -10.2421875 19.48828125 C-10.92418213 19.48324585 -11.60617676 19.47821045 -12.30883789 19.47302246 C-14.83132591 19.44706516 -17.35320977 19.37725827 -19.875 19.3125 C-25.52625 19.209375 -31.1775 19.10625 -37 19 C-37 32.86 -37 46.72 -37 61 C-37.66 60.67 -38.32 60.34 -39 60 C-39.19205195 54.05549867 -39.37080791 48.1108049 -39.53710938 42.16552734 C-39.59560279 40.14198009 -39.65776484 38.11853548 -39.72363281 36.09521484 C-39.81753791 33.19127083 -39.898356 30.28721633 -39.9765625 27.3828125 C-40.00875885 26.47443634 -40.0409552 25.56606018 -40.0741272 24.63015747 C-40.09429901 23.78943695 -40.11447083 22.94871643 -40.13525391 22.08251953 C-40.15746002 21.34083527 -40.17966614 20.599151 -40.20254517 19.83499146 C-40 18 -40 18 -38 16 C-35.40913979 15.80312097 -32.91618857 15.7230683 -30.32421875 15.7265625 C-28.75845648 15.70626675 -27.19270133 15.68541584 -25.62695312 15.6640625 C-23.15822356 15.64149238 -20.68977514 15.6250054 -18.22094727 15.61914062 C-15.83818669 15.60959526 -13.4566941 15.57578762 -11.07421875 15.5390625 C-10.34071701 15.54410797 -9.60721527 15.54915344 -8.85148621 15.55435181 C-5.26422647 15.48578405 -3.13371688 15.08145247 -0.04614258 13.20068359 C2.6788787 10.26984696 2.77392747 7.91859048 3 4 C2.34 4 1.68 4 1 4 C0.505 2.02 0.505 2.02 0 0 Z " fill="#030A1D" transform="translate(235,252)"/>
<path d="M0 0 C11.22 0 22.44 0 34 0 C34 0.33 34 0.66 34 1 C32.65252686 1.029729 32.65252686 1.029729 31.27783203 1.06005859 C27.94909922 1.13809261 24.62082744 1.22478114 21.29248047 1.31738281 C19.8511626 1.35569674 18.40974832 1.39054543 16.96826172 1.421875 C14.89776114 1.46747446 12.82792567 1.52547444 10.7578125 1.5859375 C9.5114502 1.6173584 8.26508789 1.6487793 6.98095703 1.68115234 C3.88458224 1.69682309 3.88458224 1.69682309 2 4 C1.79064043 6.86803259 1.70636587 9.64025561 1.70947266 12.51025391 C1.70275543 13.39192734 1.69603821 14.27360077 1.68911743 15.18199158 C1.67003856 18.11357189 1.66620624 21.04492384 1.6640625 23.9765625 C1.6576341 26.0204579 1.65090571 28.06435238 1.64389038 30.10824585 C1.63188781 34.40747198 1.62821188 38.70661766 1.62939453 43.00585938 C1.62959622 48.474937 1.60246433 53.94348614 1.56785011 59.41243935 C1.54542192 63.64395434 1.54156206 67.87534622 1.54261398 72.10691452 C1.54027534 74.12003754 1.53155148 76.13316487 1.51594925 78.14622879 C1.41286472 92.84067207 3.26395888 105.0377017 8 119 C8.66 119 9.32 119 10 119 C10.2475 119.78375 10.495 120.5675 10.75 121.375 C12.15389099 124.32317108 13.00675737 124.9024777 16 126 C16 126.99 16 127.98 16 129 C17.32 129.66 18.64 130.32 20 131 C20 131.66 20 132.32 20 133 C21.98 133.66 23.96 134.32 26 135 C25.67 135.99 25.34 136.98 25 138 C12.15735903 129.18642286 3.74737312 117.89567456 0.42261124 102.52670479 C-0.28713282 98.28329251 -0.26124372 94.09123393 -0.22705078 89.79858398 C-0.22748886 88.33357704 -0.22748886 88.33357704 -0.22793579 86.838974 C-0.22655302 83.64125386 -0.21104169 80.44377271 -0.1953125 77.24609375 C-0.19157863 75.01693346 -0.18873342 72.78777153 -0.18673706 70.55860901 C-0.17913011 64.71429856 -0.15950698 58.87008877 -0.1373291 53.02581787 C-0.11680721 47.05303305 -0.10772181 41.08023185 -0.09765625 35.10742188 C-0.0762582 23.40489675 -0.04110013 11.70247253 0 0 Z " fill="#13478C" transform="translate(198,334)"/>
<path d="M0 0 C-0.99 0.33 -1.98 0.66 -3 1 C-3.99 0.505 -3.99 0.505 -5 0 C-6.71021381 -0.10489818 -8.42445965 -0.146574 -10.1378479 -0.15821838 C-11.2260231 -0.1680072 -12.3141983 -0.17779602 -13.43534851 -0.18788147 C-14.63440323 -0.19363693 -15.83345795 -0.1993924 -17.06884766 -0.20532227 C-18.32735031 -0.21522186 -19.58585297 -0.22512146 -20.88249207 -0.23532104 C-24.33885454 -0.26239767 -27.79523072 -0.28339226 -31.2516408 -0.30332303 C-34.86182696 -0.32516561 -38.47197078 -0.35256273 -42.0821228 -0.37937927 C-48.92085634 -0.42932958 -55.75961334 -0.47425971 -62.59839284 -0.51740164 C-70.38308322 -0.56675406 -78.16773111 -0.62167957 -85.95238042 -0.67708123 C-101.96821447 -0.79093716 -117.98408744 -0.89776831 -134 -1 C-134 -1.33 -134 -1.66 -134 -2 C-117.38000683 -2.15392781 -100.75997325 -2.30196033 -84.13986588 -2.4429636 C-76.42296869 -2.5085706 -68.70609745 -2.57611089 -60.98925781 -2.64819336 C-54.26372607 -2.7110112 -47.53817391 -2.77021091 -40.81257224 -2.82505554 C-37.25101697 -2.85422526 -33.68949837 -2.88521372 -30.12799835 -2.92053413 C-26.15340568 -2.95988355 -22.17877192 -2.99115561 -18.20410156 -3.02172852 C-17.02158813 -3.03467453 -15.83907471 -3.04762054 -14.62072754 -3.06095886 C-13.53821716 -3.06799835 -12.45570679 -3.07503784 -11.34039307 -3.08229065 C-10.40016422 -3.09058679 -9.45993538 -3.09888292 -8.49121475 -3.10743046 C-4.72030852 -2.94481494 -2.70854439 -2.70854439 0 0 Z " fill="#565657" transform="translate(320,22)"/>
<path d="M0 0 C0.33 0 0.66 0 1 0 C1.00586624 1.23868835 1.01173248 2.47737671 1.01777649 3.75360107 C1.07515039 15.46404012 1.14798821 27.17429607 1.23571491 38.88454819 C1.28031892 44.90397537 1.31959692 50.92333641 1.34643555 56.94287109 C1.37256805 62.75908255 1.41304045 68.57503816 1.46318626 74.39109039 C1.47978789 76.60284476 1.49134369 78.81464332 1.49761391 81.02645111 C1.54380943 95.83252525 2.29436292 108.52064831 9 122 C8.01 122.495 8.01 122.495 7 123 C4.16470552 118.94957931 2.94379222 114.81722335 1.6484375 110.109375 C1.19081495 108.03477571 1.19081495 108.03477571 0 107 C-0.09543095 105.60856311 -0.12188575 104.21231633 -0.12025452 102.81761169 C-0.12162918 101.91592255 -0.12300385 101.0142334 -0.12442017 100.08522034 C-0.12082489 99.08828659 -0.11722961 98.09135284 -0.11352539 97.06420898 C-0.11367142 96.02043091 -0.11381744 94.97665283 -0.1139679 93.90124512 C-0.11326826 90.43284057 -0.10547353 86.96448897 -0.09765625 83.49609375 C-0.09579225 81.09855682 -0.09436826 78.7010195 -0.09336853 76.30348206 C-0.08954194 69.97904416 -0.07971046 63.65462906 -0.06866455 57.3302002 C-0.05845345 50.88224598 -0.05387156 44.43428809 -0.04882812 37.98632812 C-0.03808832 25.324209 -0.02120119 12.66210571 0 0 Z " fill="#001032" transform="translate(197,333)"/>
<path d="M0 0 C1.08667969 0.50660156 1.08667969 0.50660156 2.1953125 1.0234375 C3.64550781 1.69246094 3.64550781 1.69246094 5.125 2.375 C6.07632813 2.81585938 7.02765625 3.25671875 8.0078125 3.7109375 C13.72702198 6.1748267 18.63597754 7.38796795 24.875 7.375 C25.60879883 7.37483887 26.34259766 7.37467773 27.09863281 7.37451172 C36.73887904 7.1787393 46.13681323 4.75501424 55 1 C54.8125 2.875 54.8125 2.875 54 5 C51.03717825 6.70586707 48.21776048 7.1367903 44.875 7.5 C40.94583641 7.71568738 40.94583641 7.71568738 38 10 C34.89302821 10.45815321 31.76233968 10.3807624 28.625 10.375 C27.729021 10.37338867 26.83304199 10.37177734 25.90991211 10.37011719 C16.29693813 10.19400163 7.31821145 8.74709876 0 2 C0 1.34 0 0.68 0 0 Z " fill="#00081C" transform="translate(222,471)"/>
<path d="M0 0 C2.0625 0.4375 2.0625 0.4375 4 1 C-7.51487419 8.52781181 -21.43105946 10.81132555 -35 9 C-39.56109681 7.9284972 -43.89443775 6.25805924 -48 4 C-48.33 3.34 -48.66 2.68 -49 2 C-45.54649909 2.51802514 -42.18885267 3.18252638 -38.8125 4.0625 C-35.16880994 5.11939406 -35.16880994 5.11939406 -32 5 C-32 5.66 -32 6.32 -32 7 C-14.90978997 7.10781066 -14.90978997 7.10781066 0 0 Z " fill="#0F4185" transform="translate(274,470)"/>
<path d="M0 0 C4.89292532 -0.09911652 9.78526221 -0.17158399 14.67895508 -0.21972656 C16.34247013 -0.23980207 18.00591496 -0.26706876 19.66918945 -0.30175781 C22.0647924 -0.35045766 24.45945992 -0.37300856 26.85546875 -0.390625 C27.96513252 -0.42159271 27.96513252 -0.42159271 29.09721375 -0.45318604 C32.788885 -0.45477859 34.812917 -0.12059871 37.9465332 1.89941406 C40.65355188 4.66854837 40.96938011 5.44884196 41.1875 9.375 C41.01703404 12.67067523 40.73844294 14.2836829 39 17 C38.24444092 14.54443298 38.00728722 12.65750078 38.0625 10.0625 C38.17129039 6.57666804 38.17129039 6.57666804 36 2 C24.12 2.33 12.24 2.66 0 3 C0 2.01 0 1.02 0 0 Z " fill="#010923" transform="translate(198,313)"/>
<path d="M0 0 C1.9609375 1.1640625 1.9609375 1.1640625 4 3 C4.6015625 5.5234375 4.6015625 5.5234375 4.625 8.375 C4.67527344 9.77878906 4.67527344 9.77878906 4.7265625 11.2109375 C3.87221786 14.49051853 2.44432145 15.87111844 -0.17990112 17.95166016 C-3.36637332 19.78700317 -6.68387949 19.61328179 -10.2421875 19.48828125 C-11.01055939 19.48120651 -11.77893127 19.47413177 -12.57058716 19.46684265 C-15.00641417 19.43902296 -17.43987704 19.37631602 -19.875 19.3125 C-21.53382078 19.2874007 -23.19267788 19.26459039 -24.8515625 19.24414062 C-28.90194198 19.18923818 -32.95057127 19.10305907 -37 19 C-37 18.34 -37 17.68 -37 17 C-35.96069336 16.99589111 -34.92138672 16.99178223 -33.85058594 16.98754883 C-29.98859295 16.96575026 -26.12761779 16.91145473 -22.26611328 16.84741211 C-20.59596524 16.82423812 -18.92567119 16.80983775 -17.25537109 16.80444336 C-14.85161421 16.79514864 -12.45015159 16.7541534 -10.046875 16.70703125 C-8.9294693 16.71293022 -8.9294693 16.71293022 -7.78948975 16.71894836 C-4.02106112 16.6132644 -2.33199653 16.31170052 0.45605469 13.6940918 C2.31712079 10.44664327 2.7093285 7.70606162 3 4 C2.34 4 1.68 4 1 4 C0.505 2.02 0.505 2.02 0 0 Z " fill="#001437" transform="translate(235,252)"/>
<path d="M0 0 C0.99 0 1.98 0 3 0 C5.32659297 4.50777389 5.72868146 9.03242964 5 14 C4.01 16.31 3.02 18.62 2 21 C-10.87 21 -23.74 21 -37 21 C-37 20.67 -37 20.34 -37 20 C-35.96069336 19.98541748 -34.92138672 19.97083496 -33.85058594 19.95581055 C-29.98874785 19.89776819 -26.12748924 19.8205362 -22.26611328 19.73754883 C-20.59596167 19.7043273 -18.92569854 19.67628666 -17.25537109 19.65356445 C-14.85205637 19.61996666 -12.44976101 19.56765054 -10.046875 19.51171875 C-9.30193787 19.50532883 -8.55700073 19.4989389 -7.78948975 19.49235535 C-4.63715373 19.40326956 -2.34521205 19.19018435 0.44042969 17.65551758 C2.8346321 15.11402 2.99999212 13.00010829 3.25 9.5625 C2.98558717 5.79461718 2.42959335 4.73329252 0 2 C0 1.34 0 0.68 0 0 Z " fill="#0F3975" transform="translate(235,313)"/>
<path d="M0 0 C0.33 0 0.66 0 1 0 C1.05849554 3.20825562 1.09376162 6.41637233 1.125 9.625 C1.14175781 10.52863281 1.15851563 11.43226563 1.17578125 12.36328125 C1.21227841 17.36339275 0.89145512 21.2987746 -1 26 C-1.68561534 28.60684514 -2.36595423 31.21403487 -3.0234375 33.828125 C-4 36 -4 36 -6.1015625 37.296875 C-7.04128906 37.64492188 -7.04128906 37.64492188 -8 38 C-6.94595648 34.8133568 -5.87148697 31.63888238 -4.74609375 28.4765625 C-1.4464956 18.91380378 -0.1477437 10.10029667 0 0 Z " fill="#01081C" transform="translate(303,416)"/>
<path d="M0 0 C-0.1875 1.875 -0.1875 1.875 -1 4 C-5.04256421 6.32753697 -9.4489019 6.46903856 -14 7 C-14.33 7.33 -14.66 7.66 -15 8 C-17.69654854 8.07319621 -20.36691458 8.09242537 -23.0625 8.0625 C-24.20041992 8.05573242 -24.20041992 8.05573242 -25.36132812 8.04882812 C-27.24091871 8.0370068 -29.12046899 8.01907078 -31 8 C-31 7.67 -31 7.34 -31 7 C-30.12859375 6.89042969 -29.2571875 6.78085937 -28.359375 6.66796875 C-19.61772645 5.50430774 -8.01205021 0 0 0 Z " fill="#010D27" transform="translate(277,472)"/>
<path d="M0 0 C1.32 0.33 2.64 0.66 4 1 C4 1.66 4 2.32 4 3 C4.66 3.33 5.32 3.66 6 4 C7.21296535 8.4186595 7.35372647 10.32913945 5.1875 14.4375 C4.465625 15.283125 3.74375 16.12875 3 17 C2.34 17 1.68 17 1 17 C1.2475 15.9790625 1.2475 15.9790625 1.5 14.9375 C2.42934163 9.4776179 2.44105075 5.03466718 0 0 Z " fill="#0B0B0B" transform="translate(319,23)"/>
<path d="M0 0 C0.33 0 0.66 0 1 0 C1.08789644 3.83318619 1.14069087 7.66610928 1.1875 11.5 C1.22520508 13.11648438 1.22520508 13.11648438 1.26367188 14.765625 C1.32314008 21.26748241 0.73652596 26.08163414 -2 32 C-2.33 32 -2.66 32 -3 32 C-3.125 24.375 -3.125 24.375 -2 21 C-1.34 21 -0.68 21 0 21 C0 14.07 0 7.14 0 0 Z " fill="#114792" transform="translate(300,416)"/>
<path d="M0 0 C0.66 0.66 1.32 1.32 2 2 C0.0625 2.5625 0.0625 2.5625 -2 3 C-2.495 2.505 -2.495 2.505 -3 2 C-5.37338639 1.84028023 -7.72118272 1.7407567 -10.09765625 1.68359375 C-10.80651474 1.66281265 -11.51537323 1.64203156 -12.24571228 1.62062073 C-14.51787305 1.55505402 -16.79015264 1.4962077 -19.0625 1.4375 C-20.59962183 1.39432151 -22.1367315 1.35070745 -23.67382812 1.30664062 C-27.4490959 1.19936551 -31.2244836 1.09811863 -35 1 C-35 0.67 -35 0.34 -35 0 C-31.22972796 -0.20010711 -27.45879083 -0.38270332 -23.6875 -0.5625 C-22.1087207 -0.64661133 -22.1087207 -0.64661133 -20.49804688 -0.73242188 C-13.68568222 -1.04683871 -6.72516241 -1.33985283 0 0 Z " fill="#0F4694" transform="translate(235,311)"/>
<path d="M0 0 C1.32 0.66 2.64 1.32 4 2 C3.38125 2.061875 2.7625 2.12375 2.125 2.1875 C-0.19155159 2.81992526 -0.19155159 2.81992526 -1.25 5.125 C-2.18037999 8.69145662 -2.45150769 11.32343741 -2 15 C-0.53652075 17.32524926 1.06272722 19.01429541 3 21 C1.68 21 0.36 21 -1 21 C-4.30644364 17.69355636 -5.29201354 15.58896775 -5.3125 11 C-5.32925781 10.13375 -5.34601563 9.2675 -5.36328125 8.375 C-4.93115829 5.54993808 -4.22226107 4.7302276 -2 3 C-1.34 2.67 -0.68 2.34 0 2 C0 1.34 0 0.68 0 0 Z " fill="#777777" transform="translate(181,20)"/>
<path d="M0 0 C0 4.0631126 -1.64267534 6.81110376 -4 10 C-7 12.5 -7 12.5 -10 14 C-12.1875 13.59375 -12.1875 13.59375 -14 13 C-13.32453125 12.48050781 -12.6490625 11.96101563 -11.953125 11.42578125 C-11.06109375 10.72839844 -10.1690625 10.03101563 -9.25 9.3125 C-8.36828125 8.62800781 -7.4865625 7.94351562 -6.578125 7.23828125 C-4.01771584 5.01538057 -2.02943654 2.70749594 0 0 Z " fill="#021130" transform="translate(291,458)"/>
<path d="M0 0 C2.97 0.495 2.97 0.495 6 1 C3.49681007 6.37722282 0.96547239 10.59391956 -3 15 C-3.33 13.68 -3.66 12.36 -4 11 C-3.34 11 -2.68 11 -2 11 C-1.34 9.68 -0.68 8.36 0 7 C0.66 7 1.32 7 2 7 C1.67 6.401875 1.34 5.80375 1 5.1875 C0 3 0 3 0 0 Z " fill="#0E458D" transform="translate(291,448)"/>
<path d="M0 0 C-0.99 0.33 -1.98 0.66 -3 1 C-3.66 0.67 -4.32 0.34 -5 0 C-6.81171098 -0.15306901 -8.6283794 -0.24946661 -10.4453125 -0.31640625 C-11.52167969 -0.35830078 -12.59804688 -0.40019531 -13.70703125 -0.44335938 C-15.39892578 -0.50233398 -15.39892578 -0.50233398 -17.125 -0.5625 C-18.26066406 -0.60568359 -19.39632813 -0.64886719 -20.56640625 -0.69335938 C-23.37747768 -0.7996604 -26.18863945 -0.90169405 -29 -1 C-29 -1.33 -29 -1.66 -29 -2 C-25.25044125 -2.19713345 -21.50034696 -2.3810316 -17.75 -2.5625 C-16.68652344 -2.61857422 -15.62304688 -2.67464844 -14.52734375 -2.73242188 C-12.99013672 -2.80493164 -12.99013672 -2.80493164 -11.421875 -2.87890625 C-10.47924805 -2.9260376 -9.53662109 -2.97316895 -8.56542969 -3.02172852 C-4.73617497 -2.98929573 -2.74288097 -2.74288097 0 0 Z " fill="#4B4B4B" transform="translate(320,22)"/>
<path d="M0 0 C0.33 0.66 0.66 1.32 1 2 C0.34 2 -0.32 2 -1 2 C-1.66 3.32 -2.32 4.64 -3 6 C-9.6 6 -16.2 6 -23 6 C-23 5.67 -23 5.34 -23 5 C-21.84242188 4.97421875 -20.68484375 4.9484375 -19.4921875 4.921875 C-17.95308872 4.86556651 -16.41402767 4.8082198 -14.875 4.75 C-13.73417969 4.72873047 -13.73417969 4.72873047 -12.5703125 4.70703125 C-7.1701431 4.47426533 -4.23283778 3.38086085 0 0 Z " fill="#2B2B2B" transform="translate(319,38)"/>
<path d="M0 0 C1.98 0 3.96 0 6 0 C3.19195732 2.96404505 0.81684226 5.44499019 -3 7 C-3 6.34 -3 5.68 -3 5 C-2.34 5 -1.68 5 -1 5 C-0.67 3.35 -0.34 1.7 0 0 Z " fill="#0D4690" transform="translate(281,463)"/>
<path d="M0 0 C1.35390985 4.34419996 0.75090827 7.83815522 -1 12 C-3.125 13.5 -3.125 13.5 -5 14 C-3.46527032 9.27775484 -1.76054874 4.64144669 0 0 Z " fill="#011231" transform="translate(300,440)"/>
<path d="M0 0 C-2 2 -2 2 -5.6953125 2.1953125 C-7.17200108 2.182009 -8.64862358 2.15814835 -10.125 2.125 C-10.87910156 2.11597656 -11.63320312 2.10695313 -12.41015625 2.09765625 C-14.27357254 2.0740687 -16.13682593 2.03819719 -18 2 C-18 1.67 -18 1.34 -18 1 C-15.75152519 0.63627613 -13.50113812 0.28435904 -11.25 -0.0625 C-9.99703125 -0.25972656 -8.7440625 -0.45695312 -7.453125 -0.66015625 C-4.49983411 -0.95080818 -2.7397586 -0.98935727 0 0 Z " fill="#041941" transform="translate(264,478)"/>
<path d="M0 0 C0.33 0 0.66 0 1 0 C1.63019694 9.99562363 1.63019694 9.99562363 -1 14.1875 C-1.99 15.0846875 -1.99 15.0846875 -3 16 C-4.32 15.67 -5.64 15.34 -7 15 C-6.030625 14.38125 -5.06125 13.7625 -4.0625 13.125 C-1.79441766 11.28385081 -1.07728791 10.31838732 -0.37890625 7.44140625 C-0.14932205 4.95130073 -0.00970935 2.50015637 0 0 Z " fill="#104693" transform="translate(240,255)"/>
<path d="M0 0 C2.31 0 4.62 0 7 0 C7 0.99 7 1.98 7 3 C4.69 3.66 2.38 4.32 0 5 C0 3.35 0 1.7 0 0 Z " fill="#074A9A" transform="translate(199,209)"/>
<path d="M0 0 C1.32 0.33 2.64 0.66 4 1 C4.02694851 2.95825873 4.04637218 4.91662226 4.0625 6.875 C4.07410156 7.96554688 4.08570313 9.05609375 4.09765625 10.1796875 C4 13 4 13 3 15 C2.34 14.67 1.68 14.34 1 14 C1.33 13.34 1.66 12.68 2 12 C2.25785684 7.44452917 1.99851462 4.1219364 0 0 Z " fill="#7D7D7D" transform="translate(319,23)"/>
<path d="M0 0 C3.98175544 2.10148204 6.35039045 4.36905358 9 8 C7.35 7.67 5.7 7.34 4 7 C4 6.34 4 5.68 4 5 C3.34 5 2.68 5 2 5 C1.34 3.35 0.68 1.7 0 0 Z " fill="#021538" transform="translate(211,462)"/>
<path d="M0 0 C2.31 1.98 4.62 3.96 7 6 C5.68 6.33 4.36 6.66 3 7 C1 5 1 5 -1 2 C-0.67 1.34 -0.34 0.68 0 0 Z " fill="#5F6160" transform="translate(177,34)"/>
<path d="M0 0 C2.72426311 2.35277269 3.8141763 4.62496331 5 8 C4.01 8 3.02 8 2 8 C-0.1519437 4.77208445 -0.20086443 3.71599191 0 0 Z " fill="#010920" transform="translate(208,458)"/>
<path d="M0 0 C0.33 1.32 0.66 2.64 1 4 C-2.22791555 6.1519437 -3.28400809 6.20086443 -7 6 C-6.401875 5.7525 -5.80375 5.505 -5.1875 5.25 C-2.71352479 3.83629988 -1.56629745 2.34944617 0 0 Z " fill="#000C27" transform="translate(236,264)"/>
</svg>
