<?xml version="1.0" encoding="UTF-8"?>
<svg version="1.1" xmlns="http://www.w3.org/2000/svg" width="512" height="512">
<path d="M0 0 C9.4877954 7.59023632 14.86785349 15.37755378 17.8125 27.25 C18.01011385 30.05647405 18.12317764 32.76725064 18.13134766 35.57202148 C18.14641609 36.77324394 18.14641609 36.77324394 18.16178894 37.99873352 C18.1924657 40.62284687 18.20961258 43.24685894 18.2265625 45.87109375 C18.24528665 47.69955813 18.26486099 49.52801398 18.2852478 51.35646057 C18.33644329 56.15183471 18.37613617 60.94723682 18.41339111 65.74273682 C18.45350987 70.64301401 18.50456621 75.54317609 18.5546875 80.44335938 C18.6512977 90.0454919 18.73574995 99.64768962 18.8125 109.25 C19.43114426 108.9697699 20.04978851 108.68953979 20.68717957 108.40081787 C21.49834732 108.03619446 22.30951508 107.67157104 23.14526367 107.29589844 C24.35166756 106.75180328 24.35166756 106.75180328 25.58244324 106.19671631 C34.05328982 102.60062461 44.85045784 103.2221619 53.41015625 106.21875 C63.81087149 110.68344727 72.42878433 117.56469305 76.8125 128.25 C79.27527471 127.28060996 81.70985902 126.2978293 84.109375 125.1796875 C93.99308 120.93032388 105.54795979 120.48229103 115.8125 123.8125 C128.08892331 129.10309821 135.42133497 138.39420787 140.8125 150.25 C141.48796875 149.90066406 142.1634375 149.55132812 142.859375 149.19140625 C143.75140625 148.73636719 144.6434375 148.28132812 145.5625 147.8125 C146.44421875 147.36003906 147.3259375 146.90757812 148.234375 146.44140625 C156.56487084 142.59170741 168.14030784 142.93599744 176.75 145.875 C187.80832896 150.64266278 196.2940626 157.65693252 200.89515686 169.03135681 C203.3513573 175.95714821 203.36772901 182.51349119 203.31420898 189.79907227 C203.3180011 191.22960438 203.32350845 192.66013281 203.33058167 194.09065247 C203.34444631 197.94661732 203.33342647 201.80213135 203.31687045 205.6580708 C203.30291016 209.72020556 203.30949314 213.782317 203.31300354 217.84446716 C203.31569921 224.67087971 203.30229305 231.49711581 203.27905273 238.32348633 C203.25252181 246.1697449 203.25067451 254.0157073 203.2624411 261.86199528 C203.27330007 269.45723344 203.26696392 277.05236646 203.25288582 284.64759636 C203.24718832 287.8564502 203.24715891 291.0652255 203.25195122 294.27408028 C203.27359956 313.72431 203.01201325 332.51410159 197.125 351.25 C196.87081299 352.07266357 196.61662598 352.89532715 196.35473633 353.74291992 C183.44915301 394.08976749 154.92038198 427.21443938 117.34765625 446.60546875 C98.8227324 455.79041177 77.65186037 462.32647874 56.8515625 462.453125 C56.10272797 462.45882507 55.35389343 462.46452515 54.58236694 462.47039795 C53.00072619 462.47979745 51.41906629 462.4863617 49.83740234 462.49023438 C47.47846736 462.4998333 45.12044597 462.53085914 42.76171875 462.5625 C28.66651738 462.66178602 15.23900129 460.7143152 1.75 456.5 C0.50585327 456.11811523 0.50585327 456.11811523 -0.76342773 455.72851562 C-8.85785007 453.16707789 -16.54648642 449.93496775 -24.1875 446.25 C-25.12335938 445.80269531 -26.05921875 445.35539062 -27.0234375 444.89453125 C-41.23654137 437.61725134 -53.96515934 427.53179677 -65.1875 416.25 C-65.66380859 415.77626953 -66.14011719 415.30253906 -66.63085938 414.81445312 C-80.85178223 400.51507001 -90.36877911 383.08088274 -100.24804688 365.66113281 C-103.36726883 360.1750088 -106.52889502 354.71351061 -109.6875 349.25 C-110.93771619 347.08345808 -112.18771591 344.91679121 -113.4375 342.75 C-114.05625 341.6775 -114.675 340.605 -115.3125 339.5 C-135.9375 303.75 -135.9375 303.75 -137.81274414 300.49951172 C-139.06185518 298.33442929 -140.31104129 296.16939018 -141.56030273 294.00439453 C-144.69952309 288.56384294 -147.83740563 283.12252784 -150.97265625 277.6796875 C-157.0411366 267.14740695 -163.12322704 256.62349865 -169.25 246.125 C-170.09643066 244.67420044 -170.09643066 244.67420044 -170.95996094 243.1940918 C-174.01277437 237.96486445 -177.0733743 232.74030376 -180.140625 227.51953125 C-181.10923462 225.86751709 -181.10923462 225.86751709 -182.09741211 224.18212891 C-183.34065713 222.06192791 -184.58616678 219.9430528 -185.83422852 217.82568359 C-186.39037842 216.8764502 -186.94652832 215.9272168 -187.51953125 214.94921875 C-188.25780151 213.69371216 -188.25780151 213.69371216 -189.01098633 212.4128418 C-192.31457007 206.33970456 -192.30668988 198.43010677 -190.5390625 191.828125 C-186.41585192 182.73591706 -178.138086 178.63843613 -169.1875 175.25 C-156.28253751 170.63767081 -140.72934893 172.50141577 -128.1875 177.25 C-105.44042964 188.06154874 -96.06657993 209.37971995 -84.43212891 230.42529297 C-82.72392268 233.50310353 -80.98970122 236.56490886 -79.25 239.625 C-78.73083008 240.57624756 -78.21166016 241.52749512 -77.67675781 242.50756836 C-74.87175989 247.62983582 -74.87175989 247.62983582 -69.99609375 250.4765625 C-66.97926754 250.4621798 -66.97926754 250.4621798 -64.1875 248.25 C-62.88981698 244.35695093 -63.04774123 240.66852421 -63.05619812 236.61120605 C-63.05408241 235.71802248 -63.05196669 234.82483891 -63.04978687 233.90458918 C-63.04377575 230.89927122 -63.04478783 227.89399513 -63.0456543 224.88867188 C-63.04262344 222.73861622 -63.03910219 220.5885612 -63.03512573 218.43850708 C-63.02722912 213.80097888 -63.02208888 209.16345841 -63.01883507 204.52592468 C-63.0129287 197.18836103 -62.99639068 189.85084598 -62.97749329 182.51330566 C-62.97115556 180.00157931 -62.96482994 177.48985294 -62.95851612 174.97812653 C-62.95535031 173.72005094 -62.9521845 172.46197535 -62.94892275 171.16577625 C-62.90684888 154.08025277 -62.87388417 136.9947515 -62.86157227 119.90917969 C-62.85318577 108.38946402 -62.83067077 96.86986826 -62.7922166 85.35021257 C-62.77247155 79.25490595 -62.76004619 73.15977851 -62.76505089 67.06443787 C-62.76970539 61.32536339 -62.75584758 55.58662806 -62.72803879 49.84762192 C-62.72113989 47.7462513 -62.72098637 45.64484553 -62.72823906 43.5434761 C-62.77465034 28.57976779 -62.03632819 16.61441606 -51.1875 5.25 C-36.69834763 -8.58179952 -17.10198765 -9.38932655 0 0 Z M-38.625 19.5 C-43.73343579 25.66062107 -44.63027822 32.80018159 -44.56604004 40.47229004 C-44.57283523 41.8155233 -44.57283523 41.8155233 -44.5797677 43.18589258 C-44.59134074 46.16900068 -44.58176531 49.15165597 -44.57226562 52.13476562 C-44.57637304 54.28057646 -44.58183492 56.42638506 -44.58854675 58.57218933 C-44.60025531 63.18457048 -44.60276195 67.79683202 -44.59819031 72.40922546 C-44.59137363 79.70439751 -44.60726041 86.99941249 -44.62658691 94.29455566 C-44.66442256 109.77969533 -44.67724105 125.26482119 -44.6875 140.75 C-44.69857582 157.46818658 -44.71392239 174.18630075 -44.75821257 190.90443754 C-44.77656266 198.15456934 -44.78046338 205.40452124 -44.77327728 212.65467072 C-44.77175471 217.16634174 -44.78254374 221.67792286 -44.79665565 226.18956947 C-44.80065575 228.27931186 -44.79953766 230.36907137 -44.79288292 232.45880699 C-44.78448599 235.31532734 -44.79450949 238.17122684 -44.80895996 241.02770996 C-44.79861906 242.26274694 -44.79861906 242.26274694 -44.78806925 243.52273417 C-44.85269891 250.09797578 -46.37166477 255.24688789 -49.8125 260.9375 C-55.24872309 266.23066459 -61.19524569 268.92968409 -68.77734375 269.31640625 C-75.74715756 269.12436924 -81.96798258 266.93777682 -87.1875 262.25 C-88.50943155 260.35683989 -89.75238013 258.40745961 -90.9375 256.42578125 C-91.28039062 255.85549194 -91.62328125 255.28520264 -91.9765625 254.69763184 C-96.16443541 247.69316603 -100.17431185 240.58487316 -104.1875 233.47949219 C-117.32946552 207.96044379 -117.32946552 207.96044379 -140.4453125 192.7578125 C-150.4641006 190.90248137 -161.10637972 191.28609696 -170.1875 196.25 C-171.93638433 197.78838159 -171.93638433 197.78838159 -173.1875 199.25 C-171.92327908 203.38489783 -170.38272439 206.9493981 -168.203125 210.6796875 C-167.60508057 211.7094873 -167.00703613 212.73928711 -166.39086914 213.80029297 C-165.74625732 214.89744629 -165.10164551 215.99459961 -164.4375 217.125 C-163.7591745 218.28892834 -163.08136723 219.45315883 -162.40405273 220.61767578 C-160.66966421 223.59667457 -158.92898059 226.57193544 -157.18597412 229.54589844 C-154.53559866 234.06930958 -151.8938649 238.59778183 -149.25 243.125 C-148.68249023 244.09550293 -148.11498047 245.06600586 -147.53027344 246.06591797 C-142.68802614 254.35897777 -137.92307381 262.69512941 -133.16827393 271.03845215 C-127.96704871 280.1628284 -122.70722122 289.25132774 -117.40405273 298.31689453 C-113.16132666 305.5721183 -108.9476782 312.843624 -104.75 320.125 C-104.12730225 321.20467041 -103.50460449 322.28434082 -102.86303711 323.39672852 C-99.71411604 328.85884383 -96.57053044 334.3239619 -93.43359375 339.79296875 C-89.7041931 346.28990822 -85.95262833 352.77370728 -82.1875 359.25 C-81.54748047 360.3539209 -80.90746094 361.4578418 -80.24804688 362.59521484 C-69.44007105 381.28156555 -69.44007105 381.28156555 -56.1875 398.25 C-55.45031738 399.06766846 -55.45031738 399.06766846 -54.69824219 399.90185547 C-30.69419451 426.04615063 3.45101824 442.34362961 38.95727539 444.37255859 C77.81768336 445.82734414 113.29970677 432.51989897 141.8125 406.25 C142.62074219 405.52425781 143.42898438 404.79851562 144.26171875 404.05078125 C164.62014266 384.86196158 178.15971428 357.67914043 182.8125 330.25 C182.97953934 329.29677856 183.14657867 328.34355713 183.31867981 327.3614502 C185.36454345 313.67417414 185.14187972 299.90785872 185.14701414 286.10044336 C185.14844937 283.92733296 185.15274398 281.75424674 185.15800858 279.58114243 C185.17640581 271.97693057 185.18469045 264.37278808 185.18310547 256.76855469 C185.18190028 249.7132704 185.20310271 242.65829009 185.2345928 235.60308278 C185.26081024 229.50922162 185.27147079 223.41545968 185.27019465 217.32154262 C185.26968751 213.6973567 185.27523505 210.07344309 185.29655075 206.44931412 C185.31965606 202.41277629 185.31037901 198.37691811 185.29833984 194.34033203 C185.30957886 193.15777328 185.32081787 191.97521454 185.33239746 190.75682068 C185.2735397 182.97102721 184.40423636 175.49236845 179.19745445 169.34239388 C174.70640601 164.97290165 169.01552296 162.44032557 162.7421875 162.15625 C156.74302965 162.62677218 151.14494726 164.74046889 147.01171875 169.1875 C143.24651236 174.07597799 141.7155181 177.60537168 141.56640625 183.8359375 C141.53353516 184.93164062 141.50066406 186.02734375 141.46679688 187.15625 C141.40580822 189.46084263 141.34849096 191.76553547 141.29492188 194.0703125 C141.26076172 195.16859375 141.22660156 196.266875 141.19140625 197.3984375 C141.1663501 198.40052246 141.14129395 199.40260742 141.11547852 200.43505859 C140.79735944 203.39066938 140.1171559 205.58670649 138.8125 208.25 C136.48912171 209.99253372 134.75689115 210.25828217 131.875 210.6875 C127.55732542 210.07068935 126.42246961 208.72986895 123.8125 205.25 C123.0969634 201.75312207 123.16233924 198.32055989 123.2109375 194.76171875 C123.19892807 193.23596977 123.19892807 193.23596977 123.18667603 191.67939758 C123.16361915 188.43169255 123.17305812 185.18523852 123.1875 181.9375 C123.19135706 178.70070661 123.18781306 175.46446916 123.16690063 172.22773743 C123.15488738 170.21653006 123.15735437 168.20516661 123.17660522 166.1940155 C123.14900526 159.21620392 122.36890026 153.37118637 117.796875 147.7890625 C111.85057946 142.69520793 107.2991488 139.84624366 99.25 140.4375 C92.6141776 141.41766392 88.14345866 144.12123317 83.8125 149.25 C79.96141786 155.17307799 79.22329941 160.33565412 79.23828125 167.296875 C79.22411667 168.23049866 79.20995209 169.16412231 79.19535828 170.1260376 C79.15371725 173.08414464 79.1382651 176.04164216 79.125 179 C79.09588755 181.9723572 79.06132185 184.94456327 79.02250671 187.91680908 C79.00011961 189.75979753 78.98423949 191.60287943 78.97566223 193.44598389 C78.96862778 194.28075256 78.96159332 195.11552124 78.9543457 195.97558594 C78.95086624 196.70646423 78.94738678 197.43734253 78.94380188 198.19036865 C78.80441618 200.37680469 78.58902169 202.19568763 77.8125 204.25 C75.00022378 205.18742541 73.22503156 205.38470844 70.3125 205.375 C69.5390625 205.37757813 68.765625 205.38015625 67.96875 205.3828125 C65.8125 205.25 65.8125 205.25 62.8125 204.25 C61.52711896 201.04508769 61.68196207 197.7376996 61.6706543 194.32324219 C61.66010262 192.53052887 61.66010262 192.53052887 61.64933777 190.70159912 C61.64517349 189.41304016 61.64100922 188.1244812 61.63671875 186.796875 C61.62628575 185.45411397 61.61486173 184.11136032 61.60249329 182.76861572 C61.55021598 177.07771138 61.50209929 171.38693997 61.48657227 165.69580078 C61.4764382 162.2090398 61.4469793 158.72288624 61.40525246 155.23636627 C61.3871015 153.27571926 61.38957954 151.31491586 61.39250183 149.35418701 C61.28188489 141.25290646 60.51367943 135.53906251 55.06640625 129.2265625 C54.22916016 128.55753906 54.22916016 128.55753906 53.375 127.875 C52.81941406 127.41351563 52.26382813 126.95203125 51.69140625 126.4765625 C46.00469434 122.76423913 40.41988327 122.51687742 33.8125 123.25 C27.70618561 124.99615497 23.14414231 128.88117513 19.8125 134.25 C18.20116152 138.42126355 17.55665466 141.91392891 17.52539062 146.37548828 C17.51197632 147.56336945 17.49856201 148.75125061 17.48474121 149.97512817 C17.47946411 151.244039 17.47418701 152.51294983 17.46875 153.8203125 C17.44641017 155.8274351 17.42405963 157.83455764 17.40106964 159.8416729 C17.35581958 164.06480858 17.32782298 168.28809302 17.29681396 172.51135254 C17.27056154 175.99763522 17.24053517 179.4837856 17.20056152 182.96994019 C17.17145959 185.58079694 17.15108277 188.19176838 17.14025879 190.80276489 C17.12684448 191.98434174 17.11343018 193.16591858 17.09960938 194.38330078 C17.09231812 195.42221466 17.08502686 196.46112854 17.07751465 197.53152466 C16.8082486 200.29361016 16.32160424 201.93829491 14.8125 204.25 C12.48563547 205.41343227 10.96528587 205.44895988 8.375 205.5 C7.20130859 205.53867187 7.20130859 205.53867187 6.00390625 205.578125 C3.27572502 205.16962728 2.4683389 204.41727539 0.8125 202.25 C-0.34244566 198.78516303 -0.31805593 196.09463654 -0.32553101 192.43778992 C-0.32835229 191.74117258 -0.33117357 191.04455525 -0.33408034 190.3268283 C-0.34242917 187.98699868 -0.34376483 185.64721635 -0.34521484 183.30737305 C-0.34988286 181.63195665 -0.3550264 179.95654152 -0.36061096 178.28112793 C-0.37189485 174.66998603 -0.38032763 171.05885239 -0.38673019 167.44769859 C-0.39740541 161.73713985 -0.41764895 156.02664045 -0.43984985 150.31611633 C-0.50179032 134.07641314 -0.55579067 117.83671334 -0.58886719 101.59692383 C-0.60721035 92.63027689 -0.63614212 83.66372925 -0.6768719 74.6971553 C-0.69794629 69.95180735 -0.71339979 65.20658457 -0.71567917 60.46118736 C-0.71782607 55.99681584 -0.73369977 51.53270493 -0.76006889 47.06841278 C-0.76726161 45.43097432 -0.76936298 43.79350428 -0.76596642 42.15605354 C-0.76206617 39.91811483 -0.7765431 37.6810062 -0.79550171 35.44316101 C-0.80046693 33.56578263 -0.80046693 33.56578263 -0.80553246 31.65047741 C-1.45392613 25.87813344 -4.23574346 21.42129858 -8.1875 17.25 C-17.88247356 10.26961904 -30.17662216 10.40495621 -38.625 19.5 Z " fill="#000000" transform="translate(250.1875,49.75)"/>
<path d="M0 0 C17.02094442 13.49284431 28.74856274 32.44845503 31.89794922 54.09423828 C34.00394388 73.51015037 31.77288107 94.85653584 20.02734375 111.0859375 C17.3294056 114.06641127 16.42530219 114.15303909 12.3125 114.625 C8.5694314 114.57727417 8.17392944 114.23031326 5.125 111.5625 C2.89640994 107.80175428 2.7211037 106.45201552 3.125 102.1875 C4.33203125 99.14453125 4.33203125 99.14453125 5.9375 96 C13.40791508 80.24678428 15.18852057 62.10149743 9.4375 45.34765625 C2.3960314 28.39364406 -8.73484843 14.69218545 -25.84912109 7.33935547 C-43.45961763 0.4863051 -61.31712541 0.31185724 -78.72265625 7.765625 C-85.02165548 10.6657045 -90.47580093 14.01003136 -95.421875 18.90234375 C-96.875 20.1875 -96.875 20.1875 -98.875 20.1875 C-99.13796875 20.76628906 -99.4009375 21.34507813 -99.671875 21.94140625 C-100.93560061 24.30063426 -102.39116016 26.09047172 -104.125 28.125 C-114.3511025 41.16328069 -118.45554122 57.80255597 -116.875 74.1875 C-115.62218121 81.87183148 -113.53264901 89.16832554 -110.125 96.1875 C-107.83491943 100.92412627 -106.97204081 103.95033668 -107.875 109.1875 C-109.86421886 112.1713283 -111.26002568 113.79026841 -114.8125 114.6640625 C-118.82448843 114.95280409 -120.245528 114.72279146 -123.43359375 112.01171875 C-134.87951734 98.77107435 -137.76985779 77.08163865 -136.65625 60.15234375 C-134.58992844 36.99664534 -123.36596697 16.36699041 -105.875 1.1875 C-74.31780241 -22.61666364 -31.82481479 -24.06024133 0 0 Z " fill="#000000" transform="translate(279.875,16.8125)"/>
</svg>
