<?xml version="1.0" encoding="UTF-8"?>
<svg version="1.1" xmlns="http://www.w3.org/2000/svg" width="512" height="512">
<path d="M0 0 C4.07630812 2.72335789 5.94177602 5.48667387 7.76171875 10.09375 C8.23447756 14.15044602 8.25032613 18.19239565 8.2734375 22.2734375 C8.2913887 23.4413382 8.3093399 24.60923889 8.32783508 25.81253052 C8.38188103 29.53123397 8.41581653 33.24980946 8.44921875 36.96875 C8.48239675 39.49480945 8.51688685 42.02085203 8.55273438 44.546875 C8.63760444 50.72905192 8.7059787 56.91124551 8.76171875 63.09375 C9.87579102 63.2805835 10.98986328 63.46741699 12.13769531 63.65991211 C27.96285499 66.35391324 27.96285499 66.35391324 35.51171875 68.65625 C36.32898438 68.90455566 37.14625 69.15286133 37.98828125 69.40869141 C52.5020857 74.0490282 66.57065489 80.92711546 78.76171875 90.09375 C79.59316406 90.71636719 80.42460937 91.33898437 81.28125 91.98046875 C106.81215409 111.8020998 125.70779779 137.20270401 135.19921875 168.34375 C135.4219043 169.07360107 135.64458984 169.80345215 135.87402344 170.55541992 C139.8305632 184.54809773 141.20219358 198.31949905 141.203125 212.7890625 C141.21495772 214.43603651 141.22833571 216.08300005 141.2431488 217.72994995 C141.27891764 222.02485363 141.29939494 226.31966461 141.31469727 230.61468506 C141.51615163 285.7111633 145.22792433 333.76256946 185.76171875 375.09375 C187.79109976 376.9353591 189.86016271 378.7151107 191.94921875 380.48828125 C199.31787331 387.0152576 204.36341292 394.87103755 205 404.81640625 C205.29407263 416.29451138 204.10461597 426.02292898 196.5859375 435.24609375 C188.54123328 443.39415605 179.34997558 447.37132024 167.97850037 447.5304718 C166.55429527 447.52831917 166.55429527 447.52831917 165.10131836 447.52612305 C164.07587921 447.5363147 163.05044006 447.54650635 161.993927 447.55700684 C158.63391553 447.58699079 155.27418984 447.59638056 151.9140625 447.60546875 C149.57279015 447.62232623 147.2315268 447.6404779 144.89027405 447.65986633 C138.75012014 447.70725612 132.6100027 447.73713688 126.46972656 447.76330566 C120.19523926 447.79316676 113.92087747 447.83967804 107.64648438 447.88476562 C95.3516283 447.97067341 83.05674631 448.03807444 70.76171875 448.09375 C70.37137451 449.31336426 69.98103027 450.53297852 69.57885742 451.78955078 C69.05030921 453.41449923 68.52140001 455.03933028 67.9921875 456.6640625 C67.73691284 457.46497314 67.48163818 458.26588379 67.21862793 459.09106445 C60.92340496 478.30496678 45.91327111 494.17460031 28.07421875 503.34375 C8.98984733 512.56960177 -13.24396098 514.57387321 -33.7109375 508.41015625 C-54.31950267 500.7190306 -71.30842884 487.02164716 -81.23828125 467.09375 C-87.23828125 453.6639762 -87.23828125 453.6639762 -87.23828125 447.09375 C-88.54405121 447.10263245 -89.84982117 447.11151489 -91.19515991 447.1206665 C-103.52412603 447.20188984 -115.85303757 447.26178152 -128.18221092 447.30099869 C-134.52018799 447.32183869 -140.85794839 447.35009131 -147.19580078 447.39550781 C-153.31662744 447.43909271 -159.43724618 447.46291407 -165.55821609 447.47325897 C-167.88891496 447.4806276 -170.21960294 447.49501669 -172.55021286 447.51667023 C-175.82457476 447.54587152 -179.09808662 447.54969892 -182.37255859 447.54785156 C-183.32778412 447.56223267 -184.28300964 447.57661377 -185.2671814 447.59143066 C-196.35492464 447.52411117 -205.02935374 443.07271724 -212.92578125 435.46875 C-220.68409197 427.08977442 -222.57169495 417.79398967 -222.4453125 406.6953125 C-221.6169703 392.28528406 -213.09901925 383.65260952 -202.93408203 374.40722656 C-177.16021189 350.821042 -161.50570522 315.82966668 -159.23828125 281.09375 C-159.09897118 275.81103993 -159.06066087 270.53027218 -159.03905106 265.24592781 C-159.02709117 262.57244564 -159.0075952 259.89911303 -158.9859314 257.22569275 C-158.92490445 249.63025054 -158.87056327 242.03482609 -158.83691406 234.43920898 C-158.81569702 229.77203862 -158.78018665 225.10514732 -158.73615646 220.43813896 C-158.7222091 218.68153656 -158.71332347 216.92488487 -158.71010208 215.16823006 C-158.67834314 199.5002843 -157.28594821 183.90989304 -152.48828125 168.90625 C-152.23151611 168.08294189 -151.97475098 167.25963379 -151.71020508 166.41137695 C-145.37922459 146.69108677 -135.43638767 129.96707752 -122.23828125 114.09375 C-121.58730469 113.2996875 -120.93632812 112.505625 -120.265625 111.6875 C-116.30570683 106.99693633 -111.94464407 103.02130189 -107.23828125 99.09375 C-106.08972656 98.07861328 -106.08972656 98.07861328 -104.91796875 97.04296875 C-82.20304102 77.48868081 -55.33626139 68.01987591 -26.23828125 63.09375 C-26.23241501 62.45561371 -26.22654877 61.81747742 -26.22050476 61.16000366 C-26.15649097 54.50856016 -26.07205024 47.85759691 -25.97583008 41.20654297 C-25.94260889 38.72548765 -25.91456827 36.24435727 -25.8918457 33.76318359 C-25.85824905 30.19335999 -25.80592842 26.62422255 -25.75 23.0546875 C-25.74361008 21.94821869 -25.73722015 20.84174988 -25.7306366 19.70175171 C-25.5919748 12.41197213 -24.70985502 7.87427049 -19.73828125 2.28125 C-14.66400199 -2.15874435 -6.18970521 -2.50612846 0 0 Z M-91.23828125 130.09375 C-91.9859375 130.78082031 -92.73359375 131.46789062 -93.50390625 132.17578125 C-105.62219831 143.50686142 -114.22718034 159.44853862 -119.55078125 175.03125 C-119.78112061 175.69729248 -120.01145996 176.36333496 -120.2487793 177.04956055 C-124.39765327 189.96816447 -125.67495004 202.76737469 -125.64897156 216.2379303 C-125.64438344 218.83362131 -125.65879799 221.42866854 -125.67736816 224.02429199 C-125.71371292 229.54743496 -125.7277624 235.07050531 -125.73828125 240.59375 C-125.84479183 296.20696562 -125.84479183 296.20696562 -131.92578125 317.90625 C-132.17996826 318.84162598 -132.43415527 319.77700195 -132.69604492 320.74072266 C-141.63003121 352.28911242 -160.73369536 384.93711764 -187.01953125 405.2421875 C-189.46167148 406.90748882 -189.46167148 406.90748882 -189.86328125 409.65625 C-189.46110348 412.27753261 -189.46110348 412.27753261 -187.08055502 413.72249854 C-183.82953742 415.29094796 -181.73307391 415.46962913 -178.1369009 415.47127342 C-176.90325721 415.47909666 -175.66961352 415.48691991 -174.39858669 415.49498022 C-173.03260444 415.48849429 -171.66662351 415.48172433 -170.30064392 415.47470093 C-168.84724611 415.47815756 -167.39385092 415.48292216 -165.94046122 415.48888266 C-161.94605519 415.50142151 -157.95186381 415.49520924 -153.95745695 415.48592401 C-149.64998305 415.4791457 -145.34254647 415.48960864 -141.03507996 415.49786377 C-132.59680975 415.51121599 -124.15861951 415.50831684 -115.72034615 415.49962585 C-108.86408498 415.49285601 -102.00784626 415.49192954 -95.15158272 415.4951973 C-94.1764879 415.495657 -93.20139309 415.49611669 -92.19674994 415.49659032 C-90.21599653 415.49754948 -88.23524313 415.49852212 -86.25448973 415.4995081 C-67.67362399 415.50806624 -49.09280264 415.49822097 -30.51194418 415.482107 C-14.55994252 415.46870133 1.39199366 415.47103314 17.34399414 415.48486328 C35.85904581 415.50090798 54.37405858 415.50724445 72.88911623 415.49802649 C74.86235614 415.49707082 76.83559606 415.49612771 78.80883598 415.4951973 C80.26522952 415.49450306 80.26522952 415.49450306 81.75104516 415.49379479 C88.60159291 415.49120172 95.45211604 415.49558267 102.30265999 415.50263596 C110.64748671 415.51103873 118.99222875 415.50879653 127.33704574 415.49279372 C131.59675895 415.48489482 135.85633083 415.48184689 140.11604309 415.49174118 C144.01252597 415.5006551 147.90873597 415.49581017 151.80519395 415.47980852 C153.2176204 415.47644667 154.63006971 415.47818617 156.04248155 415.48543589 C157.95703185 415.49451214 159.87164638 415.48344029 161.78617954 415.47127342 C162.85124275 415.47078637 163.91630595 415.47029931 165.0136438 415.46979749 C168.14243522 415.04165263 169.52709944 414.29672535 171.76171875 412.09375 C172.36037729 409.61019898 172.36037729 409.61019898 171.76171875 407.09375 C170.46830537 405.23722305 170.46830537 405.23722305 168.578125 403.7109375 C167.90225342 403.10701172 167.22638184 402.50308594 166.5300293 401.88085938 C165.43815308 400.93436523 165.43815308 400.93436523 164.32421875 399.96875 C157.80080078 394.08132781 152.05543618 388.13254187 146.76171875 381.09375 C145.92081775 380.04823311 145.07828396 379.00402797 144.234375 377.9609375 C127.4317383 356.70686738 116.72204097 330.62397726 111.76171875 304.09375 C111.59477005 303.22386948 111.42782135 302.35398895 111.2558136 301.45774841 C109.75893622 292.8369218 109.45459914 284.45020366 109.42619324 275.73065186 C109.41773532 273.21172953 109.39707784 270.69314171 109.37365723 268.17431641 C109.32589909 262.81417904 109.29274476 257.45400684 109.26171875 252.09375 C109.28740048 190.420374 109.28740048 190.420374 80.76171875 137.09375 C80.024375 136.21203125 79.28703125 135.3303125 78.52734375 134.421875 C58.38738688 111.12270921 29.56665506 98.00860582 -0.86328125 95.28125 C-35.23246623 93.31269034 -66.97750223 106.06753653 -91.23828125 130.09375 Z M-53.23828125 447.09375 C-45.75679616 462.05672019 -39.19143755 470.36782716 -23.67578125 476.46875 C-11.41455772 480.49223495 0.24342334 479.50920637 11.94921875 474.03125 C22.1166633 468.55734214 29.81997549 461.65193947 34.76171875 451.09375 C35.09171875 449.77375 35.42171875 448.45375 35.76171875 447.09375 C6.39171875 447.09375 -22.97828125 447.09375 -53.23828125 447.09375 Z " fill="#000000" transform="translate(264.23828125,0.90625)"/>
<path d="M0 0 C2.32597695 2.02379875 4.47673622 4.12609151 6.59765625 6.36328125 C7.14550781 6.93820313 7.69335938 7.513125 8.2578125 8.10546875 C10.10084947 10.14322461 11.84678966 12.24556642 13.59765625 14.36328125 C14.54162552 15.47138922 15.48564 16.57945867 16.4296875 17.6875 C52.98605867 61.09854396 75.42436857 116.47428016 77.59765625 173.36328125 C77.63020508 174.05969727 77.66275391 174.75611328 77.69628906 175.47363281 C78.40534574 191.91085588 78.40534574 191.91085588 73.59765625 198.36328125 C68.35949774 202.53242782 64.27440203 203.91055549 57.59765625 203.36328125 C52.32526278 201.55335513 48.65244868 199.12875743 45.59765625 194.36328125 C44.56712142 191.27167676 44.36881427 188.85136939 44.203125 185.60546875 C41.53197952 138.2358509 29.91988457 93.21659165 1.59765625 54.36328125 C1.19337402 53.80495605 0.7890918 53.24663086 0.37255859 52.67138672 C-4.53542232 45.95039026 -9.80334863 39.69743923 -15.4855957 33.62060547 C-27.85927413 20.35054157 -27.85927413 20.35054157 -27.75 10.78125 C-26.99288863 5.51549792 -24.02858456 1.62361788 -19.90234375 -1.57421875 C-13.11925809 -4.45703015 -6.18333999 -4.21271456 0 0 Z " fill="#000000" transform="translate(413.40234375,26.63671875)"/>
<path d="M0 0 C3.73591097 2.9503649 5.81314531 5.72642059 6.43359375 10.4375 C6.53901034 17.89045265 5.32875079 22.51345605 0.14453125 27.92578125 C-1.39027669 29.4444898 -2.93375383 30.95447175 -4.484375 32.45703125 C-8.65330022 36.64616128 -12.27819768 41.2253993 -15.90234375 45.88671875 C-16.32773438 46.43038086 -16.753125 46.97404297 -17.19140625 47.53417969 C-25.12461787 57.74644991 -31.71269762 68.54430783 -37.90234375 79.88671875 C-38.26956543 80.55251953 -38.63678711 81.21832031 -39.01513672 81.90429688 C-55.28852907 111.71464453 -63.74142607 145.91214245 -64.5246582 179.78613281 C-64.74869417 187.77542947 -65.60547677 194.46008533 -71.265625 200.4765625 C-74.6925274 203.42909655 -78.01927948 203.80787373 -82.40234375 204.19921875 C-87.82340806 203.71519515 -91.21666479 201.92380383 -94.71484375 197.82421875 C-102.80586225 186.95913677 -98.16719044 162.11475949 -96.31469727 149.1484375 C-94.71302048 138.94077636 -92.49699203 128.88483769 -89.90234375 118.88671875 C-89.68739258 118.0560791 -89.47244141 117.22543945 -89.25097656 116.36962891 C-78.15002053 74.51288511 -55.61393793 37.09028681 -25.90234375 5.88671875 C-25.22042969 5.12875 -24.53851563 4.37078125 -23.8359375 3.58984375 C-17.2265324 -3.56664857 -8.62818857 -5.0493506 0 0 Z " fill="#000000" transform="translate(118.90234375,26.11328125)"/>
</svg>
